<svg version="1.1" preserveAspectRatio="none" xmlns="http://www.w3.org/2000/svg" width="500" height="500" viewBox="0 0 500 500"><rect width="100%" height="100%" fill="#FFFFFF" fill-opacity="1"/><svg viewBox="183.8143 200.9943 448.7372 92.4" width="333" height="68.56841821894865" x="83.5px" y="215.7158px" xmlns="http://www.w3.org/2000/svg" xmlns:xlink="http://www.w3.org/1999/xlink" preserveAspectRatio="none"><defs></defs><style>.companyName {fill:#182145;fill-opacity:1;}.icon1 {fill:#182145;fill-opacity:1;}.icon2 {fill:#E35B34;fill-opacity:1;}.icon3 {fill:#E3D454;fill-opacity:1;}.icon3-str {stroke:#E3D454;stroke-opacity:1;}.text {fill:#182145;fill-opacity:1;}</style><g opacity="1" transform="rotate(0 183.8143 200.9943)">
<svg width="54.8624" height="92.4" x="183.8143" y="200.9943" version="1.1" preserveAspectRatio="none" viewBox="52.5008659362793 20.000768661499023 94.99935913085938 159.99923706054688">
  <g transform="matrix(1 0 0 1 0 0)"><g><path d="M133.564 52.775a.328.328 0 0 1-.133-.028c-13.137-5.776-13.137-14.475-13.137-20.231v-7.041c0-.134.082-.255.207-.304l12.941-5.147a.332.332 0 0 1 .244 0l12.94 5.147c.125.05.207.17.207.304v7.041c0 6.635-1.493 14.931-13.133 20.229a.318.318 0 0 1-.136.03zm-12.612-27.078v6.819c0 5.566 0 13.968 12.61 19.572 11.177-5.146 12.614-13.158 12.614-19.572v-6.819l-12.612-5.017-12.612 5.017z" data-color="1" class="icon1"></path><path d="m131.715 43.997-7.553-8.489 2.777-2.066 4.706 5.29 8.3-9.803 2.83 2.004-11.06 13.064z" data-color="2" class="icon2"></path><path d="M145.131 54.863c-1-.788-2.35.797-2.459.928.1-.122 1.204-1.509-.064-1.956-.68-.24-1.539-.086-2.509 1.453-1.34 2.127-2.466 3.997-2.466 3.997s.334-1.978 1.248-4.137c.521-1.23-.202-1.81-.552-1.875-.868-.16-1.478.05-2.57 2.291-1.092 2.241-1.573 3.606-1.573 3.606s-5.728.211-7.647 1.001c-.766.316-1.273 1.728-1.606 3.309-.358 1.699-1.896 13.519-2.767 16.528 3.037 1.004 6.094 1.949 9.189 2.76.578.151 1.937.269 1.937.269s.574-11.289.857-15.046c.09-1.197.847-2.242 1.935-2.754 2.426-1.142 6.289-2.757 6.552-3.073.82-.988 1.977-3.105 2.658-5.379.383-1.28.18-1.651-.163-1.922z" data-color="3" class="icon3"></path><path d="M139.945 61.829a.34.34 0 0 1-.311-.48c.203-.45 3.086-6.304 3.209-6.553a.34.34 0 0 1 .612.3c-.03.061-3.001 6.093-3.199 6.532a.341.341 0 0 1-.311.201z" data-color="1" class="icon1"></path><path d="M137.062 61.069c-.281-.071-.382-.262-.326-.441l.903-2.898a.342.342 0 0 1 .651.202l-.903 2.898a.34.34 0 0 1-.325.239z" data-color="1" class="icon1"></path><path d="M142.635 62.164s4.55-3.677 4.834-4.239c.284-.562-1.443-2.053-2.176-1.14l-2.658 5.379z" data-color="3" class="icon3"></path><path d="M142.562 62.657a.34.34 0 0 1-.308-.486l2.979-6.262a.342.342 0 0 1 .454-.162.34.34 0 0 1 .162.453l-2.979 6.262a.34.34 0 0 1-.308.195z" data-color="1" class="icon1"></path><defs><path d="m63.11 109.36 22.778-.362 11.48.285 9.307 2.615s3.933 37.429 2.739 68.102h-20.67c-.8-14.856-2.778-43.351-2.778-43.351s-.749 8.665-6.695 43.351H58.948l4.162-70.64z" id="7e305732-7a41-450a-9c8e-b00f9407cb13"></path></defs><use clip-rule="evenodd" fill-rule="evenodd" overflow="visible" xlink:href="#7e305732-7a41-450a-9c8e-b00f9407cb13" data-color="1" class="icon1"></use><path d="M85.527 142.019c-.228-.025-.362-.195-.339-.381l1.166-9.609a12.048 12.048 0 0 1 2.886-6.486l1.655-1.902a.34.34 0 1 1 .515.446l-1.655 1.902a11.371 11.371 0 0 0-2.723 6.122l-1.166 9.609a.34.34 0 0 1-.339.299z" data-color="4" class="icon1"></path><defs><path d="m124.386 63.115-3.941 12.523c-1.59-3.01-8.086-11.787-12.051-14.847-5.033-3.883-15.251-4.278-15.251-4.278s-8.808-.207-10.99-.035c-3.658.288-20.855 1.488-23.48 10.977-1.602 5.792-3.61 14.352-4.234 19.88-.703 6.23-6.087 24.742 4.881 38.273 7.574 9.345 7.699 8.212 7.699 8.212l7.209-16.327-3.209-5.329c-.089-.004.26-.365.35-.37 1.28.078 19.659.088 19.354 0-.043-.09 16.779.103 16.779.103l.321-18.347c.125 8.56 10.526 10.104 14.002 8.56 11.456-5.09 12.303-20.429 17.162-34.348l-14.601-4.647z" id="f3ba9417-729f-43f7-8471-06885a1ee2a6"></path></defs><clipPath id="95619c7a-0c64-4dd3-8063-79ff46fbe41d"><use overflow="visible" xlink:href="#f3ba9417-729f-43f7-8471-06885a1ee2a6"></use></clipPath><path d="m124.386 63.115-3.941 12.523c-1.59-3.01-8.086-11.787-12.051-14.847-5.033-3.883-15.251-4.278-15.251-4.278s-8.808-.207-10.99-.035c-3.658.288-20.855 1.488-23.48 10.977-1.602 5.792-3.61 14.352-4.234 19.88-.703 6.23-6.087 24.742 4.881 38.273 7.574 9.345 7.699 8.212 7.699 8.212l7.209-16.327-3.209-5.329c-.089-.004.26-.365.35-.37 1.28.078 19.659.088 19.354 0-.043-.09 16.779.103 16.779.103l.321-18.347c.125 8.56 10.526 10.104 14.002 8.56 11.456-5.09 12.303-20.429 17.162-34.348l-14.601-4.647z" clip-rule="evenodd" fill-rule="evenodd" clip-path="url(#95619c7a-0c64-4dd3-8063-79ff46fbe41d)" data-color="5" class="icon2"></path><path d="m83.812 33.656 2.28-.007.504 1.134c2.073.129 9.785.638 9.785.638l.906 1.36.389 9.669c.005 1.539-.886 3.807-4.869 3.86l.023 4.41-3.536 3.611s-5.984-3.167-6.034-3.602c-.048-.432.552-21.073.552-21.073z" data-color="3" class="icon3"></path><path d="M92.823 53.235c-3.324-.333-4.846-2.11-5.523-3.417-.157-.304.195-.623.478-.43 2.01 1.373 5.03.924 5.03.924-.014.275-.008.579.005.891l.01 2.032z" opacity=".15"></path><defs><path d="M82.423 32.91s-.002-3.163 4.886-3.168c1.466-.001 2.586.557 3.741.689 1.578.181 6.126-.718 6.309.75.078.623-.599.887-1.337.992 4.005.868 4.8 3.252 4.007 4.312-.723.967-7.019.256-10.913-.902a.714.714 0 0 0-.907.804c.148.883.181 2.105-.399 3.176-.781 1.44-2.261 1.888-2.261 1.888l-.363 3.143s.331 3.373-1.782 3.667c0 0-.002-1.175-1.79-4.727-1.235-2.451-2.204-9.434.809-10.624z" id="4778615d-d4a1-404f-9f68-de5246e3f9ed"></path></defs><use overflow="visible" xlink:href="#4778615d-d4a1-404f-9f68-de5246e3f9ed" data-color="6" class="icon3"></use><clipPath id="7b346d5b-740e-4904-a118-796014f6d3a6"><use overflow="visible" xlink:href="#4778615d-d4a1-404f-9f68-de5246e3f9ed"></use></clipPath><path d="M82.423 32.91s-.002-3.163 4.886-3.168c1.466-.001 2.586.557 3.741.689 1.578.181 6.126-.718 6.309.75.078.623-.599.887-1.337.992 4.005.868 4.8 3.252 4.007 4.312-.723.967-7.019.256-10.913-.902a.714.714 0 0 0-.907.804c.148.883.181 2.105-.399 3.176-.781 1.44-2.261 1.888-2.261 1.888l-.363 3.143s.331 3.373-1.782 3.667c0 0-.002-1.175-1.79-4.727-1.235-2.451-2.204-9.434.809-10.624z" clip-path="url(#7b346d5b-740e-4904-a118-796014f6d3a6)" data-color="6" class="icon3"></path><path d="M94.332 45.258a.34.34 0 0 1-.033-.678c.595-.058 1.108-.485 1.204-.663-1.086-1.838-1.147-3.375-1.149-3.44a.34.34 0 0 1 .33-.35.343.343 0 0 1 .352.328c0 .014.064 1.469 1.089 3.174.058.097.134.301-.008.582-.225.445-.982.971-1.752 1.046a.353.353 0 0 1-.033.001z" data-color="1" class="icon1"></path><path d="M95.073 40.01a.34.34 0 0 1-.227-.594c.038-.034.938-.819 1.934-.356a.339.339 0 0 1 .165.452.342.342 0 0 1-.453.165c-.593-.275-1.187.242-1.192.248a.348.348 0 0 1-.227.085z" data-color="1" class="icon1"></path><path clip-rule="evenodd" fill-rule="evenodd" d="m96.08 57.136-2.825-4.774-2.766 5.238-8.667-5.569-3.415 4.797 5.903 8.218 5.161-4.012 3.489 3.583 3.12-7.481z" data-color="5" class="icon2"></path><path d="M86.527 65.554a.342.342 0 0 1-.236-.094l-7.646-7.283a.34.34 0 1 1 .471-.492l7.343 6.995 3.972-6.329a.338.338 0 0 1 .273-.159.34.34 0 0 1 .287.134l4.179 5.467.569-6.482a.34.34 0 0 1 .37-.309.34.34 0 0 1 .31.368l-.645 7.357a.34.34 0 0 1-.611.176l-4.414-5.776-3.932 6.266a.34.34 0 0 1-.29.161z" data-color="1" class="icon1"></path><path d="M92.018 113.509c-.206-.01-.351-.17-.341-.358 1.631-30.932-1.265-54.344-1.294-54.577a.34.34 0 0 1 .677-.085c.029.233 2.933 23.702 1.298 54.698a.34.34 0 0 1-.34.322z" data-color="1" class="icon1"></path><path d="M95.609 77.166c0 .666.394 1.207.879 1.207s.879-.54.879-1.207c0-.666-.394-1.206-.879-1.206s-.879.54-.879 1.206z" clip-rule="evenodd" fill-rule="evenodd" data-color="4" class="icon1"></path><path d="M94.472 104.865c0 .666.394 1.207.879 1.207s.879-.54.879-1.207c0-.666-.393-1.207-.879-1.207-.485 0-.879.54-.879 1.207z" clip-rule="evenodd" fill-rule="evenodd" data-color="4" class="icon1"></path><path d="M95.351 90.278c0 .666.394 1.206.879 1.206s.879-.54.879-1.206c0-.666-.394-1.207-.879-1.207s-.879.54-.879 1.207z" clip-rule="evenodd" fill-rule="evenodd" data-color="4" class="icon1"></path><path d="M107.847 97.128a.342.342 0 0 1-.341-.349c.004-.152.378-15.322-.699-25.405a.34.34 0 0 1 .678-.072c1.083 10.128.707 25.342.703 25.494a.34.34 0 0 1-.341.332z" data-color="1" class="icon1"></path><path d="M71.429 112.417a.342.342 0 0 1-.341-.352c.006-.163.563-16.605.563-40.445a.34.34 0 0 1 .682 0c0 23.853-.558 40.305-.563 40.468a.342.342 0 0 1-.341.329z" data-color="1" class="icon1"></path><path d="M90.535 40.635a.338.338 0 0 1-.299-.502c.29-.529 1.224-1.34 2.681-.631a.34.34 0 1 1-.299.611c-1.206-.587-1.729.252-1.784.349a.345.345 0 0 1-.299.173z" data-color="1" class="icon1"></path><path d="M91.341 41.642c-.012-.177-.034-.357-.028-.535-.024-.15.122-.295.271-.31.166.007.259.051.283.148.067.278.073.459.089.636.018.192.046.344-.086.507-.085.104-.264.122-.364.036-.157-.135-.153-.29-.165-.482z" data-color="1" class="icon1"></path><path d="M96.03 41.434c-.011-.177-.034-.357-.028-.535-.024-.15.122-.295.271-.31.166.007.259.051.283.148.067.278.073.459.089.636.017.191.046.344-.087.507-.085.104-.264.122-.364.036-.156-.135-.151-.29-.164-.482z" data-color="1" class="icon1"></path><path d="M92.776 47.119c-.185 0-.383-.04-.59-.135-.86-.394-.778-1.43-.775-1.474a.343.343 0 0 1 .37-.309.34.34 0 0 1 .31.368c-.002.023-.041.603.38.796.658.301 1.113-.47 1.132-.503a.34.34 0 1 1 .591.34c-.212.367-.732.917-1.418.917z" data-color="1" class="icon1"></path><path d="M66.457 136.025a.343.343 0 0 1-.314-.472c3.21-7.615 8.036-19.178 8.175-19.822a.333.333 0 0 1 .375-.293c.187.02.322.196.301.383-.068.631-6.861 16.768-8.222 19.996a.342.342 0 0 1-.315.208z" data-color="4" class="icon1"></path><path d="M72.314 114.021a.34.34 0 0 1-.287-.156l-8.243-12.773a.34.34 0 1 1 .573-.368l8.244 12.773a.34.34 0 0 1-.287.524z" data-color="1" class="icon1"></path><path d="M117.412 83.59a.34.34 0 0 1-.317-.466l3.032-7.613a.341.341 0 0 1 .634.251l-3.032 7.613a.34.34 0 0 1-.317.215z" data-color="1" class="icon1"></path><path d="M86.268 44.574c-.752.521-1.946.215-2.667-.682-.721-.897-.696-2.047.057-2.568.752-.52 1.947-.215 2.667.682.72.898.695 2.048-.057 2.568z" data-color="3" class="icon3"></path><path d="M86.199 44.154a.34.34 0 0 1-.34-.32c-.087-1.454-1.76-1.629-1.832-1.636a.341.341 0 0 1-.308-.37.342.342 0 0 1 .37-.308c.805.072 2.353.64 2.451 2.273a.34.34 0 0 1-.32.36l-.021.001z" data-color="1" class="icon1"></path><path d="M115.886 77.935a.341.341 0 0 1-.164-.639l3.044-1.664a.34.34 0 1 1 .328.597l-3.044 1.664a.34.34 0 0 1-.164.042z" data-color="1" class="icon1"></path></g></g>
</svg>
</g><g opacity="1" transform="rotate(0 258.6767 272.9943)">
<svg width="293.357" height="20.4" x="258.6767" y="272.9943" version="1.1" preserveAspectRatio="none" viewBox="1.76 -30.88 559.8 38.92">
  <g transform="matrix(1 0 0 1 0 0)" class="text"><path id="id-6izo4zJp25" d="M16.72 0.40Q12.48 0.40 9.06-1.46Q5.64-3.32 3.70-6.60Q1.76-9.88 1.76-14L1.76-14Q1.76-18.12 3.72-21.40Q5.68-24.68 9.10-26.54Q12.52-28.40 16.76-28.40L16.76-28.40Q20.20-28.40 23.04-27.20Q25.88-26 27.84-23.72L27.84-23.72L24.48-20.56Q21.44-23.84 17-23.84L17-23.84Q14.12-23.84 11.84-22.58Q9.56-21.32 8.28-19.08Q7-16.84 7-14L7-14Q7-11.16 8.28-8.92Q9.56-6.68 11.84-5.42Q14.12-4.16 17-4.16L17-4.16Q21.44-4.16 24.48-7.48L24.48-7.48L27.84-4.28Q25.88-2 23.02-0.80Q20.16 0.40 16.72 0.40L16.72 0.40Z M52.84-10.56Q52.84-10.04 52.76-9.08L52.76-9.08L36-9.08Q36.44-6.72 38.30-5.34Q40.16-3.96 42.92-3.96L42.92-3.96Q46.44-3.96 48.72-6.28L48.72-6.28L51.40-3.20Q49.96-1.48 47.76-0.60Q45.56 0.28 42.80 0.28L42.80 0.28Q39.28 0.28 36.60-1.12Q33.92-2.52 32.46-5.02Q31-7.52 31-10.68L31-10.68Q31-13.80 32.42-16.30Q33.84-18.80 36.36-20.20Q38.88-21.60 42.04-21.60L42.04-21.60Q45.16-21.60 47.62-20.22Q50.08-18.84 51.46-16.34Q52.84-13.84 52.84-10.56L52.84-10.56ZM42.04-17.60Q39.64-17.60 37.98-16.18Q36.32-14.76 35.96-12.40L35.96-12.40L48.08-12.40Q47.76-14.72 46.12-16.16Q44.48-17.60 42.04-17.60L42.04-17.60Z M63.60-18.24Q65.76-21.60 71.20-21.60L71.20-21.60L71.20-16.84Q70.56-16.96 70.04-16.96L70.04-16.96Q67.12-16.96 65.48-15.26Q63.84-13.56 63.84-10.36L63.84-10.36L63.84 0L58.84 0L58.84-21.36L63.60-21.36L63.60-18.24Z M88.88-4.72L90.28-1.16Q89.40-0.44 88.14-0.08Q86.88 0.28 85.48 0.28L85.48 0.28Q81.96 0.28 80.04-1.56Q78.12-3.40 78.12-6.92L78.12-6.92L78.12-17.20L74.60-17.20L74.60-21.20L78.12-21.20L78.12-26.08L83.12-26.08L83.12-21.20L88.84-21.20L88.84-17.20L83.12-17.20L83.12-7.04Q83.12-5.48 83.88-4.66Q84.64-3.84 86.08-3.84L86.08-3.84Q87.76-3.84 88.88-4.72L88.88-4.72Z M95.60 0L95.60-21.36L100.60-21.36L100.60 0L95.60 0ZM98.12-24.88Q96.76-24.88 95.84-25.74Q94.92-26.60 94.92-27.88L94.92-27.88Q94.92-29.16 95.84-30.02Q96.76-30.88 98.12-30.88L98.12-30.88Q99.48-30.88 100.40-30.06Q101.32-29.24 101.32-28L101.32-28Q101.32-26.68 100.42-25.78Q99.52-24.88 98.12-24.88L98.12-24.88Z M117.04-25.92Q113.88-25.92 113.88-22.48L113.88-22.48L113.88-21.20L119.76-21.20L119.76-17.20L114.04-17.20L114.04 0L109.04 0L109.04-17.20L105.52-17.20L105.52-21.20L109.04-21.20L109.04-22.56Q109.04-26 111.04-27.98Q113.04-29.96 116.68-29.96L116.68-29.96Q119.56-29.96 121.20-28.80L121.20-28.80L119.80-25.04Q118.52-25.92 117.04-25.92L117.04-25.92Z M139.92-21.36L144.72-21.36L134.72 1.72Q133.32 5.20 131.32 6.62Q129.32 8.04 126.48 8.04L126.48 8.04Q124.88 8.04 123.32 7.52Q121.76 7 120.76 6.08L120.76 6.08L122.76 2.40Q123.48 3.08 124.46 3.48Q125.44 3.88 126.44 3.88L126.44 3.88Q127.76 3.88 128.62 3.20Q129.48 2.52 130.20 0.92L130.20 0.92L130.56 0.08L121.24-21.36L126.44-21.36L133.16-5.56L139.92-21.36Z M176.48-21.36L181.28-21.36L171.28 1.72Q169.88 5.20 167.88 6.62Q165.88 8.04 163.04 8.04L163.04 8.04Q161.44 8.04 159.88 7.52Q158.32 7 157.32 6.08L157.32 6.08L159.32 2.40Q160.04 3.08 161.02 3.48Q162 3.88 163 3.88L163 3.88Q164.32 3.88 165.18 3.20Q166.04 2.52 166.76 0.92L166.76 0.92L167.12 0.08L157.80-21.36L163-21.36L169.72-5.56L176.48-21.36Z M194.60 0.28Q191.36 0.28 188.76-1.12Q186.16-2.52 184.70-5.02Q183.24-7.52 183.24-10.68L183.24-10.68Q183.24-13.84 184.70-16.32Q186.16-18.80 188.76-20.20Q191.36-21.60 194.60-21.60L194.60-21.60Q197.88-21.60 200.48-20.20Q203.08-18.80 204.54-16.32Q206-13.84 206-10.68L206-10.68Q206-7.52 204.54-5.02Q203.08-2.52 200.48-1.12Q197.88 0.28 194.60 0.28L194.60 0.28ZM194.60-4Q197.36-4 199.16-5.84Q200.96-7.68 200.96-10.68L200.96-10.68Q200.96-13.68 199.16-15.52Q197.36-17.36 194.60-17.36L194.60-17.36Q191.84-17.36 190.06-15.52Q188.28-13.68 188.28-10.68L188.28-10.68Q188.28-7.68 190.06-5.84Q191.84-4 194.60-4L194.60-4Z M227.68-21.36L232.68-21.36L232.68 0L227.92 0L227.92-2.72Q226.72-1.28 224.92-0.50Q223.12 0.28 221.04 0.28L221.04 0.28Q216.76 0.28 214.30-2.10Q211.84-4.48 211.84-9.16L211.84-9.16L211.84-21.36L216.84-21.36L216.84-9.84Q216.84-6.96 218.14-5.54Q219.44-4.12 221.84-4.12L221.84-4.12Q224.52-4.12 226.10-5.78Q227.68-7.44 227.68-10.56L227.68-10.56L227.68-21.36Z M245.20-18.24Q247.36-21.60 252.80-21.60L252.80-21.60L252.80-16.84Q252.16-16.96 251.64-16.96L251.64-16.96Q248.72-16.96 247.08-15.26Q245.44-13.56 245.44-10.36L245.44-10.36L245.44 0L240.44 0L240.44-21.36L245.20-21.36L245.20-18.24Z M282.52-21.60Q285.64-21.60 288.10-20.24Q290.56-18.88 291.96-16.40Q293.36-13.92 293.36-10.68L293.36-10.68Q293.36-7.44 291.96-4.94Q290.56-2.44 288.10-1.08Q285.64 0.28 282.52 0.28L282.52 0.28Q280.32 0.28 278.50-0.48Q276.68-1.24 275.44-2.76L275.44-2.76L275.44 0L270.68 0L270.68-29.68L275.68-29.68L275.68-18.76Q276.96-20.16 278.70-20.88Q280.44-21.60 282.52-21.60L282.52-21.60ZM281.96-4Q284.72-4 286.50-5.84Q288.28-7.68 288.28-10.68L288.28-10.68Q288.28-13.68 286.50-15.52Q284.72-17.36 281.96-17.36L281.96-17.36Q280.16-17.36 278.72-16.54Q277.28-15.72 276.44-14.20Q275.60-12.68 275.60-10.68L275.60-10.68Q275.60-8.68 276.44-7.16Q277.28-5.64 278.72-4.82Q280.16-4 281.96-4L281.96-4Z M315.00-21.36L320.00-21.36L320.00 0L315.24 0L315.24-2.72Q314.04-1.28 312.24-0.50Q310.44 0.28 308.36 0.28L308.36 0.28Q304.08 0.28 301.62-2.10Q299.16-4.48 299.16-9.16L299.16-9.16L299.16-21.36L304.16-21.36L304.16-9.84Q304.16-6.96 305.46-5.54Q306.76-4.12 309.16-4.12L309.16-4.12Q311.84-4.12 313.42-5.78Q315.00-7.44 315.00-10.56L315.00-10.56L315.00-21.36Z M334.36 0.28Q331.76 0.28 329.28-0.40Q326.80-1.08 325.32-2.12L325.32-2.12L327.24-5.92Q328.68-4.96 330.70-4.38Q332.72-3.80 334.68-3.80L334.68-3.80Q339.16-3.80 339.16-6.16L339.16-6.16Q339.16-7.28 338.02-7.72Q336.88-8.16 334.36-8.56L334.36-8.56Q331.72-8.96 330.06-9.48Q328.40-10 327.18-11.30Q325.96-12.60 325.96-14.92L325.96-14.92Q325.96-17.96 328.50-19.78Q331.04-21.60 335.36-21.60L335.36-21.60Q337.56-21.60 339.76-21.10Q341.96-20.60 343.36-19.76L343.36-19.76L341.44-15.96Q338.72-17.56 335.32-17.56L335.32-17.56Q333.12-17.56 331.98-16.90Q330.84-16.24 330.84-15.16L330.84-15.16Q330.84-13.96 332.06-13.46Q333.28-12.96 335.84-12.52L335.84-12.52Q338.40-12.12 340.04-11.60Q341.68-11.08 342.86-9.84Q344.04-8.60 344.04-6.32L344.04-6.32Q344.04-3.32 341.44-1.52Q338.84 0.28 334.36 0.28L334.36 0.28Z M349.56 0L349.56-21.36L354.56-21.36L354.56 0L349.56 0ZM352.08-24.88Q350.72-24.88 349.80-25.74Q348.88-26.60 348.88-27.88L348.88-27.88Q348.88-29.16 349.80-30.02Q350.72-30.88 352.08-30.88L352.08-30.88Q353.44-30.88 354.36-30.06Q355.28-29.24 355.28-28L355.28-28Q355.28-26.68 354.38-25.78Q353.48-24.88 352.08-24.88L352.08-24.88Z M374.44-21.60Q378.48-21.60 380.92-19.24Q383.36-16.88 383.36-12.24L383.36-12.24L383.36 0L378.36 0L378.36-11.60Q378.36-14.40 377.04-15.82Q375.72-17.24 373.28-17.24L373.28-17.24Q370.52-17.24 368.92-15.58Q367.32-13.92 367.32-10.80L367.32-10.80L367.32 0L362.32 0L362.32-21.36L367.08-21.36L367.08-18.60Q368.32-20.08 370.20-20.84Q372.08-21.60 374.44-21.60L374.44-21.60Z M411.20-10.56Q411.20-10.04 411.12-9.08L411.12-9.08L394.36-9.08Q394.80-6.72 396.66-5.34Q398.52-3.96 401.28-3.96L401.28-3.96Q404.80-3.96 407.08-6.28L407.08-6.28L409.76-3.20Q408.32-1.48 406.12-0.60Q403.92 0.28 401.16 0.28L401.16 0.28Q397.64 0.28 394.96-1.12Q392.28-2.52 390.82-5.02Q389.36-7.52 389.36-10.68L389.36-10.68Q389.36-13.80 390.78-16.30Q392.20-18.80 394.72-20.20Q397.24-21.60 400.40-21.60L400.40-21.60Q403.52-21.60 405.98-20.22Q408.44-18.84 409.82-16.34Q411.20-13.84 411.20-10.56L411.20-10.56ZM400.40-17.60Q398.00-17.60 396.34-16.18Q394.68-14.76 394.32-12.40L394.32-12.40L406.44-12.40Q406.12-14.72 404.48-16.16Q402.84-17.60 400.40-17.60L400.40-17.60Z M423.80 0.28Q421.20 0.28 418.72-0.40Q416.24-1.08 414.76-2.12L414.76-2.12L416.68-5.92Q418.12-4.96 420.14-4.38Q422.16-3.80 424.12-3.80L424.12-3.80Q428.60-3.80 428.60-6.16L428.60-6.16Q428.60-7.28 427.46-7.72Q426.32-8.16 423.80-8.56L423.80-8.56Q421.16-8.96 419.50-9.48Q417.84-10 416.62-11.30Q415.40-12.60 415.40-14.92L415.40-14.92Q415.40-17.96 417.94-19.78Q420.48-21.60 424.80-21.60L424.80-21.60Q427.00-21.60 429.20-21.10Q431.40-20.60 432.80-19.76L432.80-19.76L430.88-15.96Q428.16-17.56 424.76-17.56L424.76-17.56Q422.56-17.56 421.42-16.90Q420.28-16.24 420.28-15.16L420.28-15.16Q420.28-13.96 421.50-13.46Q422.72-12.96 425.28-12.52L425.28-12.52Q427.84-12.12 429.48-11.60Q431.12-11.08 432.30-9.84Q433.48-8.60 433.48-6.32L433.48-6.32Q433.48-3.32 430.88-1.52Q428.28 0.28 423.80 0.28L423.80 0.28Z M445.60 0.28Q443.00 0.28 440.52-0.40Q438.04-1.08 436.56-2.12L436.56-2.12L438.48-5.92Q439.92-4.96 441.94-4.38Q443.96-3.80 445.92-3.80L445.92-3.80Q450.40-3.80 450.40-6.16L450.40-6.16Q450.40-7.28 449.26-7.72Q448.12-8.16 445.60-8.56L445.60-8.56Q442.96-8.96 441.30-9.48Q439.64-10 438.42-11.30Q437.20-12.60 437.20-14.92L437.20-14.92Q437.20-17.96 439.74-19.78Q442.28-21.60 446.60-21.60L446.60-21.60Q448.80-21.60 451.00-21.10Q453.20-20.60 454.60-19.76L454.60-19.76L452.68-15.96Q449.96-17.56 446.56-17.56L446.56-17.56Q444.36-17.56 443.22-16.90Q442.08-16.24 442.08-15.16L442.08-15.16Q442.08-13.96 443.30-13.46Q444.52-12.96 447.08-12.52L447.08-12.52Q449.64-12.12 451.28-11.60Q452.92-11.08 454.10-9.84Q455.28-8.60 455.28-6.32L455.28-6.32Q455.28-3.32 452.68-1.52Q450.08 0.28 445.60 0.28L445.60 0.28Z M485.16-21.60Q489.20-21.60 491.64-19.24Q494.08-16.88 494.08-12.24L494.08-12.24L494.08 0L489.08 0L489.08-11.60Q489.08-14.40 487.76-15.82Q486.44-17.24 484.00-17.24L484.00-17.24Q481.24-17.24 479.64-15.58Q478.04-13.92 478.04-10.80L478.04-10.80L478.04 0L473.04 0L473.04-21.36L477.80-21.36L477.80-18.60Q479.04-20.08 480.92-20.84Q482.80-21.60 485.16-21.60L485.16-21.60Z M511.44 0.28Q508.20 0.28 505.60-1.12Q503.00-2.52 501.54-5.02Q500.08-7.52 500.08-10.68L500.08-10.68Q500.08-13.84 501.54-16.32Q503.00-18.80 505.60-20.20Q508.20-21.60 511.44-21.60L511.44-21.60Q514.72-21.60 517.32-20.20Q519.92-18.80 521.38-16.32Q522.84-13.84 522.84-10.68L522.84-10.68Q522.84-7.52 521.38-5.02Q519.92-2.52 517.32-1.12Q514.72 0.28 511.44 0.28L511.44 0.28ZM511.44-4Q514.20-4 516.00-5.84Q517.80-7.68 517.80-10.68L517.80-10.68Q517.80-13.68 516.00-15.52Q514.20-17.36 511.44-17.36L511.44-17.36Q508.68-17.36 506.90-15.52Q505.12-13.68 505.12-10.68L505.12-10.68Q505.12-7.68 506.90-5.84Q508.68-4 511.44-4L511.44-4Z M557.12-21.36L561.56-21.36L553.68 0L548.88 0L543.36-14.72L537.76 0L532.96 0L525.12-21.36L529.84-21.36L535.48-5.60L541.36-21.36L545.56-21.36L551.32-5.52L557.12-21.36Z"/></g>
</svg>
</g><g opacity="1" transform="rotate(0 258.6767 200.9943)">
<svg width="373.8748" height="60" x="258.6767" y="200.9943" version="1.1" preserveAspectRatio="none" viewBox="3.32 -28.48 180.44 28.96">
  <g transform="matrix(1 0 0 1 0 0)" class="companyName"><path id="id-D6z1nYkh7" d="M3.32 0L3.32-28L9.80-28L9.80-5.28L23.84-5.28L23.84 0L3.32 0Z M27.48 0L27.48-28L33.96-28L33.96 0L27.48 0Z M54 0.48Q49.72 0.48 46.26-1.38Q42.80-3.24 40.82-6.54Q38.84-9.84 38.84-14L38.84-14Q38.84-18.16 40.82-21.46Q42.80-24.76 46.26-26.62Q49.72-28.48 54.04-28.48L54.04-28.48Q57.68-28.48 60.62-27.20Q63.56-25.92 65.56-23.52L65.56-23.52L61.40-19.68Q58.56-22.96 54.36-22.96L54.36-22.96Q51.76-22.96 49.72-21.82Q47.68-20.68 46.54-18.64Q45.40-16.60 45.40-14L45.40-14Q45.40-11.40 46.54-9.36Q47.68-7.32 49.72-6.18Q51.76-5.04 54.36-5.04L54.36-5.04Q58.56-5.04 61.40-8.36L61.40-8.36L65.56-4.52Q63.56-2.08 60.60-0.80Q57.64 0.48 54 0.48L54 0.48Z M76.36-5.20L91.60-5.20L91.60 0L69.92 0L69.92-28L91.08-28L91.08-22.80L76.36-22.80L76.36-16.72L89.36-16.72L89.36-11.68L76.36-11.68L76.36-5.20Z M121.56 0L114.60 0L109.20-7.80L108.88-7.80L103.24-7.80L103.24 0L96.76 0L96.76-28L108.88-28Q112.60-28 115.34-26.76Q118.08-25.52 119.56-23.24Q121.04-20.96 121.04-17.84L121.04-17.84Q121.04-14.72 119.54-12.46Q118.04-10.20 115.28-9L115.28-9L121.56 0ZM114.48-17.84Q114.48-20.20 112.96-21.46Q111.44-22.72 108.52-22.72L108.52-22.72L103.24-22.72L103.24-12.96L108.52-12.96Q111.44-12.96 112.96-14.24Q114.48-15.52 114.48-17.84L114.48-17.84Z M139.56 0.48Q135.28 0.48 131.82-1.38Q128.36-3.24 126.38-6.54Q124.40-9.84 124.40-14L124.40-14Q124.40-18.16 126.38-21.46Q128.36-24.76 131.82-26.62Q135.28-28.48 139.60-28.48L139.60-28.48Q143.24-28.48 146.18-27.20Q149.12-25.92 151.12-23.52L151.12-23.52L146.96-19.68Q144.12-22.96 139.92-22.96L139.92-22.96Q137.32-22.96 135.28-21.82Q133.24-20.68 132.10-18.64Q130.96-16.60 130.96-14L130.96-14Q130.96-11.40 132.10-9.36Q133.24-7.32 135.28-6.18Q137.32-5.04 139.92-5.04L139.92-5.04Q144.12-5.04 146.96-8.36L146.96-8.36L151.12-4.52Q149.12-2.08 146.16-0.80Q143.20 0.48 139.56 0.48L139.56 0.48Z M168.44 0.48Q164.08 0.48 160.58-1.40Q157.08-3.28 155.10-6.58Q153.12-9.88 153.12-14L153.12-14Q153.12-18.12 155.10-21.42Q157.08-24.72 160.58-26.60Q164.08-28.48 168.44-28.48L168.44-28.48Q172.80-28.48 176.28-26.60Q179.76-24.72 181.76-21.42Q183.76-18.12 183.76-14L183.76-14Q183.76-9.88 181.76-6.58Q179.76-3.28 176.28-1.40Q172.80 0.48 168.44 0.48L168.44 0.48ZM168.44-5.04Q170.92-5.04 172.92-6.18Q174.92-7.32 176.06-9.36Q177.20-11.40 177.20-14L177.20-14Q177.20-16.60 176.06-18.64Q174.92-20.68 172.92-21.82Q170.92-22.96 168.44-22.96L168.44-22.96Q165.96-22.96 163.96-21.82Q161.96-20.68 160.82-18.64Q159.68-16.60 159.68-14L159.68-14Q159.68-11.40 160.82-9.36Q161.96-7.32 163.96-6.18Q165.96-5.04 168.44-5.04L168.44-5.04Z"/></g>
</svg>
</g></svg></svg>