<svg version="1.1" preserveAspectRatio="none" xmlns="http://www.w3.org/2000/svg" width="500" height="500" viewBox="0 0 500 500"><rect width="100%" height="100%" fill="#FFFFFF" fill-opacity="1"/><svg viewBox="106.3197 300.6254 612.221 153.2" width="333" height="83.32873259819576" x="83.5px" y="208.3356px" xmlns="http://www.w3.org/2000/svg" xmlns:xlink="http://www.w3.org/1999/xlink" preserveAspectRatio="none"><defs></defs><style>.aD6z1nYkhcolor {fill:#42A5FF;fill-opacity:1;}.aIptOCySncolors-3 {fill:#3CB9EF;fill-opacity:1;}.aIptOCySncolors-4 {fill:#83EDFF;fill-opacity:1;}.aIptOCySncolors-5 {fill:#AEDDFF;fill-opacity:1;}.aIptOCySncolors-6 {fill:#FFF1FF;fill-opacity:1;}.aIptOCySncolors-7 {fill:#FFE4CE;fill-opacity:1;}.icon1 {fill:#42A5FF;fill-opacity:1;}.icon2 {fill:#6DDDD0;fill-opacity:1;}.icon3 {fill:#FFD4D4;fill-opacity:1;}.icon3-str {stroke:#FFD4D4;stroke-opacity:1;}.text {fill:#42A5FF;fill-opacity:1;}</style><g opacity="1" transform="rotate(0 106.3197 300.6254)">
<svg width="155.8731" height="153.2" x="106.3197" y="300.6254" version="1.1" preserveAspectRatio="none" viewBox="3.878999948501587 5.0980000495910645 40.00199890136719 39.316001892089844">
  <g transform="matrix(1 0 0 1 0 0)" class="icon1"><g><path d="M23.881,44.414L3.879,29.408l5.022-7.53V5.098L19.837,18.77h8.094L38.86,5.098v16.78l5.021,7.53L23.881,44.414z    M7.037,28.869l16.844,12.638l16.85-12.638l-4.189-6.287V11.726l-7.5,9.36H18.72l-7.493-9.36v10.857L7.037,28.869z"></path></g></g>
</svg>
</g><g opacity="1" transform="rotate(0 282.1928 411.6254)">
<svg width="436.3479" height="27.2" x="282.1928" y="411.6254" version="1.1" preserveAspectRatio="none" viewBox="2.08 -29.88 607.04 37.84">
  <g transform="matrix(1 0 0 1 0 0)" class="text"><path id="id-6izo4zJp25" d="M16.72 0.24Q12.56 0.24 9.22-1.60Q5.88-3.44 3.98-6.70Q2.08-9.96 2.08-14L2.08-14Q2.08-18.04 3.98-21.30Q5.88-24.56 9.24-26.40Q12.60-28.24 16.76-28.24L16.76-28.24Q19.88-28.24 22.52-27.20Q25.16-26.16 27-24.16L27-24.16L25.12-22.28Q21.84-25.60 16.84-25.60L16.84-25.60Q13.52-25.60 10.80-24.08Q8.08-22.56 6.54-19.92Q5-17.28 5-14L5-14Q5-10.72 6.54-8.08Q8.08-5.44 10.80-3.92Q13.52-2.40 16.84-2.40L16.84-2.40Q21.88-2.40 25.12-5.76L25.12-5.76L27-3.88Q25.16-1.88 22.50-0.82Q19.84 0.24 16.72 0.24L16.72 0.24Z M54.16-10.52L54.12-9.64L36.52-9.64Q36.76-6.36 39.04-4.34Q41.32-2.32 44.80-2.32L44.80-2.32Q46.76-2.32 48.40-3.02Q50.04-3.72 51.24-5.08L51.24-5.08L52.84-3.24Q51.44-1.56 49.34-0.68Q47.24 0.20 44.72 0.20L44.72 0.20Q41.48 0.20 38.98-1.18Q36.48-2.56 35.08-5Q33.68-7.44 33.68-10.52L33.68-10.52Q33.68-13.60 35.02-16.04Q36.36-18.48 38.70-19.84Q41.04-21.20 43.96-21.20L43.96-21.20Q46.88-21.20 49.20-19.84Q51.52-18.48 52.84-16.06Q54.16-13.64 54.16-10.52L54.16-10.52ZM43.96-18.76Q40.92-18.76 38.86-16.82Q36.80-14.88 36.52-11.76L36.52-11.76L51.44-11.76Q51.16-14.88 49.10-16.82Q47.04-18.76 43.96-18.76L43.96-18.76Z M66.68-16.92Q67.68-19.04 69.66-20.12Q71.64-21.20 74.56-21.20L74.56-21.20L74.56-18.44L73.88-18.48Q70.56-18.48 68.68-16.44Q66.80-14.40 66.80-10.72L66.80-10.72L66.80 0L63.96 0L63.96-21.04L66.68-21.04L66.68-16.92Z M94.68-3.32L95.68-1.28Q94.88-0.56 93.70-0.18Q92.52 0.20 91.24 0.20L91.24 0.20Q88.28 0.20 86.68-1.40Q85.08-3 85.08-5.92L85.08-5.92L85.08-18.64L81.32-18.64L81.32-21.04L85.08-21.04L85.08-25.64L87.92-25.64L87.92-21.04L94.32-21.04L94.32-18.64L87.92-18.64L87.92-6.08Q87.92-4.20 88.86-3.22Q89.80-2.24 91.56-2.24L91.56-2.24Q92.44-2.24 93.26-2.52Q94.08-2.80 94.68-3.32L94.68-3.32Z M104.84 0L104.84-21.04L107.68-21.04L107.68 0L104.84 0ZM106.28-25.64Q105.40-25.64 104.80-26.24Q104.20-26.84 104.20-27.68L104.20-27.68Q104.20-28.48 104.80-29.08Q105.40-29.68 106.28-29.68L106.28-29.68Q107.16-29.68 107.76-29.10Q108.36-28.52 108.36-27.72L108.36-27.72Q108.36-26.84 107.76-26.24Q107.16-25.64 106.28-25.64L106.28-25.64Z M126.56-27.48Q124.72-27.48 123.78-26.48Q122.84-25.48 122.84-23.52L122.84-23.52L122.84-21.04L129.32-21.04L129.32-18.64L122.92-18.64L122.92 0L120.08 0L120.08-18.64L116.32-18.64L116.32-21.04L120.08-21.04L120.08-23.64Q120.08-26.52 121.74-28.20Q123.40-29.88 126.44-29.88L126.44-29.88Q127.64-29.88 128.76-29.54Q129.88-29.20 130.64-28.56L130.64-28.56L129.68-26.44Q128.44-27.48 126.56-27.48L126.56-27.48Z M152.44-21.04L155.24-21.04L144.72 2.52Q143.44 5.48 141.76 6.72Q140.08 7.96 137.72 7.96L137.72 7.96Q136.20 7.96 134.88 7.48Q133.56 7 132.60 6.04L132.60 6.04L133.92 3.92Q135.52 5.52 137.76 5.52L137.76 5.52Q139.20 5.52 140.22 4.72Q141.24 3.92 142.12 2L142.12 2L143.04-0.04L133.64-21.04L136.60-21.04L144.52-3.16L152.44-21.04Z M192.60-21.04L195.40-21.04L184.88 2.52Q183.60 5.48 181.92 6.72Q180.24 7.96 177.88 7.96L177.88 7.96Q176.36 7.96 175.04 7.48Q173.72 7 172.76 6.04L172.76 6.04L174.08 3.92Q175.68 5.52 177.92 5.52L177.92 5.52Q179.36 5.52 180.38 4.72Q181.40 3.92 182.28 2L182.28 2L183.20-0.04L173.80-21.04L176.76-21.04L184.68-3.16L192.60-21.04Z M211.40 0.20Q208.36 0.20 205.92-1.18Q203.48-2.56 202.08-5Q200.68-7.44 200.68-10.52L200.68-10.52Q200.68-13.60 202.08-16.04Q203.48-18.48 205.92-19.84Q208.36-21.20 211.40-21.20L211.40-21.20Q214.44-21.20 216.88-19.84Q219.32-18.48 220.70-16.04Q222.08-13.60 222.08-10.52L222.08-10.52Q222.08-7.44 220.70-5Q219.32-2.56 216.88-1.18Q214.44 0.20 211.40 0.20L211.40 0.20ZM211.40-2.32Q213.64-2.32 215.42-3.34Q217.20-4.36 218.20-6.24Q219.20-8.12 219.20-10.52L219.20-10.52Q219.20-12.92 218.20-14.80Q217.20-16.68 215.42-17.70Q213.64-18.72 211.40-18.72L211.40-18.72Q209.16-18.72 207.38-17.70Q205.60-16.68 204.58-14.80Q203.56-12.92 203.56-10.52L203.56-10.52Q203.56-8.12 204.58-6.24Q205.60-4.36 207.38-3.34Q209.16-2.32 211.40-2.32L211.40-2.32Z M248.00-21.04L250.84-21.04L250.84 0L248.12 0L248.12-3.84Q247.00-1.92 245.04-0.86Q243.08 0.20 240.56 0.20L240.56 0.20Q236.44 0.20 234.06-2.10Q231.68-4.40 231.68-8.84L231.68-8.84L231.68-21.04L234.52-21.04L234.52-9.12Q234.52-5.80 236.16-4.08Q237.80-2.36 240.84-2.36L240.84-2.36Q244.16-2.36 246.08-4.38Q248.00-6.40 248.00-10L248.00-10L248.00-21.04Z M265.52-16.92Q266.52-19.04 268.50-20.12Q270.48-21.20 273.40-21.20L273.40-21.20L273.40-18.44L272.72-18.48Q269.40-18.48 267.52-16.44Q265.64-14.40 265.64-10.72L265.64-10.72L265.64 0L262.80 0L262.80-21.04L265.52-21.04L265.52-16.92Z M308.16-21.20Q311.12-21.20 313.52-19.86Q315.92-18.52 317.28-16.08Q318.64-13.64 318.64-10.52L318.64-10.52Q318.64-7.40 317.28-4.96Q315.92-2.52 313.52-1.16Q311.12 0.20 308.16 0.20L308.16 0.20Q305.52 0.20 303.42-0.92Q301.32-2.04 300.04-4.16L300.04-4.16L300.04 0L297.32 0L297.32-29.68L300.16-29.68L300.16-17.04Q301.48-19.08 303.54-20.14Q305.60-21.20 308.16-21.20L308.16-21.20ZM307.96-2.32Q310.16-2.32 311.96-3.34Q313.76-4.36 314.78-6.24Q315.80-8.12 315.80-10.52L315.80-10.52Q315.80-12.92 314.78-14.80Q313.76-16.68 311.96-17.70Q310.16-18.72 307.96-18.72L307.96-18.72Q305.72-18.72 303.94-17.70Q302.16-16.68 301.14-14.80Q300.12-12.92 300.12-10.52L300.12-10.52Q300.12-8.12 301.14-6.24Q302.16-4.36 303.94-3.34Q305.72-2.32 307.96-2.32L307.96-2.32Z M344.56-21.04L347.40-21.04L347.40 0L344.68 0L344.68-3.84Q343.56-1.92 341.60-0.86Q339.64 0.20 337.12 0.20L337.12 0.20Q333.00 0.20 330.62-2.10Q328.24-4.40 328.24-8.84L328.24-8.84L328.24-21.04L331.08-21.04L331.08-9.12Q331.08-5.80 332.72-4.08Q334.36-2.36 337.40-2.36L337.40-2.36Q340.72-2.36 342.64-4.38Q344.56-6.40 344.56-10L344.56-10L344.56-21.04Z M365.00 0.20Q362.44 0.20 360.10-0.54Q357.76-1.28 356.44-2.40L356.44-2.40L357.72-4.64Q359.04-3.60 361.04-2.94Q363.04-2.28 365.20-2.28L365.20-2.28Q368.08-2.28 369.46-3.18Q370.84-4.08 370.84-5.72L370.84-5.72Q370.84-6.88 370.08-7.54Q369.32-8.20 368.16-8.54Q367.00-8.88 365.08-9.20L365.08-9.20Q362.52-9.68 360.96-10.18Q359.40-10.68 358.30-11.88Q357.20-13.08 357.20-15.20L357.20-15.20Q357.20-17.84 359.40-19.52Q361.60-21.20 365.52-21.20L365.52-21.20Q367.56-21.20 369.60-20.66Q371.64-20.12 372.96-19.24L372.96-19.24L371.72-16.96Q369.12-18.76 365.52-18.76L365.52-18.76Q362.80-18.76 361.42-17.80Q360.04-16.84 360.04-15.28L360.04-15.28Q360.04-14.08 360.82-13.36Q361.60-12.64 362.76-12.30Q363.92-11.96 365.96-11.60L365.96-11.60Q368.48-11.12 370.00-10.64Q371.52-10.16 372.60-9Q373.68-7.84 373.68-5.80L373.68-5.80Q373.68-3.04 371.38-1.42Q369.08 0.20 365.00 0.20L365.00 0.20Z M382.92 0L382.92-21.04L385.76-21.04L385.76 0L382.92 0ZM384.36-25.64Q383.48-25.64 382.88-26.24Q382.28-26.84 382.28-27.68L382.28-27.68Q382.28-28.48 382.88-29.08Q383.48-29.68 384.36-29.68L384.36-29.68Q385.24-29.68 385.84-29.10Q386.44-28.52 386.44-27.72L386.44-27.72Q386.44-26.84 385.84-26.24Q385.24-25.64 384.36-25.64L384.36-25.64Z M408.40-21.20Q412.36-21.20 414.70-18.90Q417.04-16.60 417.04-12.20L417.04-12.20L417.04 0L414.20 0L414.20-11.92Q414.20-15.20 412.56-16.92Q410.92-18.64 407.88-18.64L407.88-18.64Q404.48-18.64 402.50-16.62Q400.52-14.60 400.52-11.04L400.52-11.04L400.52 0L397.68 0L397.68-21.04L400.40-21.04L400.40-17.16Q401.56-19.08 403.62-20.14Q405.68-21.20 408.40-21.20L408.40-21.20Z M447.20-10.52L447.16-9.64L429.56-9.64Q429.80-6.36 432.08-4.34Q434.36-2.32 437.84-2.32L437.84-2.32Q439.80-2.32 441.44-3.02Q443.08-3.72 444.28-5.08L444.28-5.08L445.88-3.24Q444.48-1.56 442.38-0.68Q440.28 0.20 437.76 0.20L437.76 0.20Q434.52 0.20 432.02-1.18Q429.52-2.56 428.12-5Q426.72-7.44 426.72-10.52L426.72-10.52Q426.72-13.60 428.06-16.04Q429.40-18.48 431.74-19.84Q434.08-21.20 437.00-21.20L437.00-21.20Q439.92-21.20 442.24-19.84Q444.56-18.48 445.88-16.06Q447.20-13.64 447.20-10.52L447.20-10.52ZM437.00-18.76Q433.96-18.76 431.90-16.82Q429.84-14.88 429.56-11.76L429.56-11.76L444.48-11.76Q444.20-14.88 442.14-16.82Q440.08-18.76 437.00-18.76L437.00-18.76Z M462.64 0.20Q460.08 0.20 457.74-0.54Q455.40-1.28 454.08-2.40L454.08-2.40L455.36-4.64Q456.68-3.60 458.68-2.94Q460.68-2.28 462.84-2.28L462.84-2.28Q465.72-2.28 467.10-3.18Q468.48-4.08 468.48-5.72L468.48-5.72Q468.48-6.88 467.72-7.54Q466.96-8.20 465.80-8.54Q464.64-8.88 462.72-9.20L462.72-9.20Q460.16-9.68 458.60-10.18Q457.04-10.68 455.94-11.88Q454.84-13.08 454.84-15.20L454.84-15.20Q454.84-17.84 457.04-19.52Q459.24-21.20 463.16-21.20L463.16-21.20Q465.20-21.20 467.24-20.66Q469.28-20.12 470.60-19.24L470.60-19.24L469.36-16.96Q466.76-18.76 463.16-18.76L463.16-18.76Q460.44-18.76 459.06-17.80Q457.68-16.84 457.68-15.28L457.68-15.28Q457.68-14.08 458.46-13.36Q459.24-12.64 460.40-12.30Q461.56-11.96 463.60-11.60L463.60-11.60Q466.12-11.12 467.64-10.64Q469.16-10.16 470.24-9Q471.32-7.84 471.32-5.80L471.32-5.80Q471.32-3.04 469.02-1.42Q466.72 0.20 462.64 0.20L462.64 0.20Z M486.20 0.20Q483.64 0.20 481.30-0.54Q478.96-1.28 477.64-2.40L477.64-2.40L478.92-4.64Q480.24-3.60 482.24-2.94Q484.24-2.28 486.40-2.28L486.40-2.28Q489.28-2.28 490.66-3.18Q492.04-4.08 492.04-5.72L492.04-5.72Q492.04-6.88 491.28-7.54Q490.52-8.20 489.36-8.54Q488.20-8.88 486.28-9.20L486.28-9.20Q483.72-9.68 482.16-10.18Q480.60-10.68 479.50-11.88Q478.40-13.08 478.40-15.20L478.40-15.20Q478.40-17.84 480.60-19.52Q482.80-21.20 486.72-21.20L486.72-21.20Q488.76-21.20 490.80-20.66Q492.84-20.12 494.16-19.24L494.16-19.24L492.92-16.96Q490.32-18.76 486.72-18.76L486.72-18.76Q484.00-18.76 482.62-17.80Q481.24-16.84 481.24-15.28L481.24-15.28Q481.24-14.08 482.02-13.36Q482.80-12.64 483.96-12.30Q485.12-11.96 487.16-11.60L487.16-11.60Q489.68-11.12 491.20-10.64Q492.72-10.16 493.80-9Q494.88-7.84 494.88-5.80L494.88-5.80Q494.88-3.04 492.58-1.42Q490.28 0.20 486.20 0.20L486.20 0.20Z M529.32-21.20Q533.28-21.20 535.62-18.90Q537.96-16.60 537.96-12.20L537.96-12.20L537.96 0L535.12 0L535.12-11.92Q535.12-15.20 533.48-16.92Q531.84-18.64 528.80-18.64L528.80-18.64Q525.40-18.64 523.42-16.62Q521.44-14.60 521.44-11.04L521.44-11.04L521.44 0L518.60 0L518.60-21.04L521.32-21.04L521.32-17.16Q522.48-19.08 524.54-20.14Q526.60-21.20 529.32-21.20L529.32-21.20Z M558.36 0.20Q555.32 0.20 552.88-1.18Q550.44-2.56 549.04-5Q547.64-7.44 547.64-10.52L547.64-10.52Q547.64-13.60 549.04-16.04Q550.44-18.48 552.88-19.84Q555.32-21.20 558.36-21.20L558.36-21.20Q561.40-21.20 563.84-19.84Q566.28-18.48 567.66-16.04Q569.04-13.60 569.04-10.52L569.04-10.52Q569.04-7.44 567.66-5Q566.28-2.56 563.84-1.18Q561.40 0.20 558.36 0.20L558.36 0.20ZM558.36-2.32Q560.60-2.32 562.38-3.34Q564.16-4.36 565.16-6.24Q566.16-8.12 566.16-10.52L566.16-10.52Q566.16-12.92 565.16-14.80Q564.16-16.68 562.38-17.70Q560.60-18.72 558.36-18.72L558.36-18.72Q556.12-18.72 554.34-17.70Q552.56-16.68 551.54-14.80Q550.52-12.92 550.52-10.52L550.52-10.52Q550.52-8.12 551.54-6.24Q552.56-4.36 554.34-3.34Q556.12-2.32 558.36-2.32L558.36-2.32Z M606.52-21.04L609.12-21.04L601.16 0L598.48 0L591.84-17.24L585.20 0L582.52 0L574.60-21.04L577.32-21.04L583.92-3.16L590.68-21.04L593.12-21.04L599.84-3.16L606.52-21.04Z"/></g>
</svg>
</g><g opacity="1" transform="rotate(0 282.1928 315.6254)">
<svg width="380.7975" height="80" x="282.1928" y="315.6254" version="1.1" preserveAspectRatio="none" viewBox="3.0859 -28.2422 122.6758 28.750100000000003">
  <g transform="matrix(1 0 0 1 0 0)" class="aD6z1nYkhcolor"><path id="id-D6z1nYkh7" d="M3.09 0L3.09-26.52L7.52-26.52L7.52-3.67Q8.34-3.67 9.23-3.69Q10.12-3.71 11.01-3.73Q11.89-3.75 12.74-3.78Q13.59-3.81 14.36-3.85L14.36-3.85Q16.15-3.93 17.87-4.00L17.87-4.00Q17.87-3.67 17.78-3.01Q17.70-2.34 17.58-1.67Q17.46-1.00 17.35-0.50Q17.25 0 17.19 0L17.19 0L3.09 0Z M24.39-23.34L24.39-23.34Q23.85-23.34 23.37-23.54Q22.89-23.73 22.53-24.06Q22.17-24.39 21.95-24.83Q21.74-25.27 21.74-25.78L21.74-25.78Q21.74-26.31 21.95-26.76Q22.17-27.21 22.53-27.54Q22.89-27.87 23.37-28.06Q23.85-28.24 24.39-28.24L24.39-28.24Q24.94-28.24 25.43-28.06Q25.92-27.87 26.28-27.54Q26.64-27.21 26.86-26.76Q27.07-26.31 27.07-25.78L27.07-25.78Q27.07-25.27 26.86-24.83Q26.64-24.39 26.28-24.06Q25.92-23.73 25.43-23.54Q24.94-23.34 24.39-23.34ZM22.15-3.36L22.15-19.96L26.21-19.96L26.21-3.28L27.36-2.46L27.36 0L26.25 0L26.21-0.04L26.21 0Q24.28 0 23.21-0.78Q22.15-1.56 22.15-3.36L22.15-3.36Z M30.57-13.03L30.57-13.03Q30.57-16.37 31.35-18.97Q32.13-21.58 33.65-23.37Q35.18-25.16 37.40-26.09Q39.63-27.03 42.52-27.03L42.52-27.03Q43.67-27.03 44.79-26.87Q45.90-26.70 46.82-26.48L46.82-26.48Q47.87-26.25 48.85-25.96L48.85-25.96Q48.79-25.45 48.67-24.88L48.67-24.88Q48.57-24.38 48.37-23.74Q48.16-23.11 47.83-22.42L47.83-22.42Q47.11-22.71 46.25-22.93L46.25-22.93Q45.51-23.13 44.55-23.28Q43.59-23.44 42.52-23.44L42.52-23.44Q40.78-23.44 39.38-22.73Q37.99-22.03 37.00-20.69Q36.02-19.36 35.49-17.42Q34.96-15.49 34.96-13.03L34.96-13.03Q34.96-10.59 35.49-8.73Q36.02-6.88 37.00-5.63Q37.99-4.38 39.38-3.74Q40.78-3.11 42.52-3.11L42.52-3.11Q43.61-3.11 44.61-3.26Q45.61-3.42 46.37-3.61L46.37-3.61Q47.27-3.83 48.03-4.14L48.03-4.14Q48.24-3.69 48.40-3.14L48.40-3.14Q48.54-2.68 48.64-2.02Q48.75-1.37 48.71-0.55L48.71-0.55Q47.79-0.23 46.76-0.02L46.76-0.02Q45.88 0.20 44.78 0.35Q43.67 0.51 42.52 0.51L42.52 0.51Q36.58 0.51 33.57-2.90Q30.57-6.31 30.57-13.03Z M51.95-9.79L51.95-9.79Q51.95-12.60 52.64-14.63Q53.32-16.66 54.55-17.97Q55.78-19.28 57.49-19.89Q59.20-20.51 61.25-20.51L61.25-20.51Q63.14-20.51 64.64-19.87Q66.13-19.24 67.17-18.09Q68.20-16.93 68.75-15.33Q69.30-13.73 69.30-11.80L69.30-11.80Q69.30-11.13 69.24-10.57Q69.18-10 69.10-9.59L69.10-9.59Q69.02-9.10 68.93-8.71L68.93-8.71L56.11-8.77Q56.13-7.03 56.48-5.89Q56.84-4.75 57.53-4.08Q58.22-3.42 59.28-3.15Q60.33-2.89 61.78-2.89L61.78-2.89Q63.01-2.89 63.98-3.05Q64.96-3.20 65.64-3.42L65.64-3.42Q66.43-3.65 67.05-3.96L67.05-3.96Q67.34-3.28 67.51-2.70Q67.68-2.11 67.75-1.68L67.75-1.68Q67.83-1.17 67.87-0.78L67.87-0.78Q67.23-0.45 66.31-0.20L66.31-0.20Q65.53 0.02 64.39 0.21Q63.26 0.39 61.78 0.39L61.78 0.39Q59.43 0.39 57.61-0.14Q55.78-0.66 54.52-1.87Q53.26-3.07 52.61-5.01Q51.95-6.95 51.95-9.79ZM56.17-11.62L65.12-11.62L65.12-12.29Q65.12-13.52 64.81-14.46Q64.51-15.41 63.98-16.05Q63.46-16.70 62.73-17.03Q62.01-17.36 61.17-17.36L61.17-17.36Q59.94-17.36 59.00-17.04Q58.07-16.72 57.43-16.03Q56.80-15.33 56.48-14.24Q56.17-13.14 56.17-11.62L56.17-11.62Z M72.38-20.18L75.98-20.18L77.99-18.07Q78.20-18.55 78.54-18.99Q78.89-19.43 79.35-19.77Q79.80-20.10 80.38-20.29Q80.96-20.49 81.64-20.49L81.64-20.49Q82.21-20.49 82.73-20.40Q83.26-20.31 83.89-20.10L83.89-20.10Q83.91-20.06 83.94-19.79Q83.96-19.51 83.96-19.10L83.96-19.10Q83.96-18.79 83.93-18.37Q83.89-17.95 83.80-17.51Q83.71-17.07 83.54-16.64Q83.38-16.21 83.13-15.90L83.13-15.90L82.75-15.80Q82.36-16.00 81.88-16.13Q81.41-16.27 80.90-16.27L80.90-16.27Q80.12-16.27 79.59-16.16Q79.06-16.05 78.73-15.94L78.73-15.94Q78.34-15.80 78.11-15.63L78.11-15.63L78.11 0L73.93 0L73.93-16.39L72.38-17.97L72.38-20.18Z M85.53-13.03L85.53-13.03Q85.53-16.37 86.31-18.97Q87.09-21.58 88.61-23.37Q90.14-25.16 92.36-26.09Q94.59-27.03 97.48-27.03L97.48-27.03Q98.63-27.03 99.75-26.87Q100.86-26.70 101.78-26.48L101.78-26.48Q102.83-26.25 103.81-25.96L103.81-25.96Q103.75-25.45 103.63-24.88L103.63-24.88Q103.54-24.38 103.33-23.74Q103.13-23.11 102.79-22.42L102.79-22.42Q102.07-22.71 101.21-22.93L101.21-22.93Q100.47-23.13 99.51-23.28Q98.55-23.44 97.48-23.44L97.48-23.44Q95.74-23.44 94.35-22.73Q92.95-22.03 91.96-20.69Q90.98-19.36 90.45-17.42Q89.92-15.49 89.92-13.03L89.92-13.03Q89.92-10.59 90.45-8.73Q90.98-6.88 91.96-5.63Q92.95-4.38 94.35-3.74Q95.74-3.11 97.48-3.11L97.48-3.11Q98.57-3.11 99.57-3.26Q100.57-3.42 101.33-3.61L101.33-3.61Q102.23-3.83 102.99-4.14L102.99-4.14Q103.20-3.69 103.36-3.14L103.36-3.14Q103.50-2.68 103.60-2.02Q103.71-1.37 103.67-0.55L103.67-0.55Q102.75-0.23 101.72-0.02L101.72-0.02Q100.84 0.20 99.74 0.35Q98.63 0.51 97.48 0.51L97.48 0.51Q91.54 0.51 88.54-2.90Q85.53-6.31 85.53-13.03Z M106.89-9.98L106.89-9.98Q106.89-12.56 107.59-14.53Q108.28-16.50 109.54-17.83Q110.80-19.16 112.55-19.84Q114.30-20.53 116.41-20.53L116.41-20.53Q118.57-20.53 120.31-19.89Q122.05-19.26 123.26-17.97Q124.47-16.68 125.12-14.76Q125.76-12.83 125.76-10.25L125.76-10.25Q125.76-7.68 125.11-5.68Q124.45-3.69 123.23-2.34Q122.01-1.00 120.28-0.30Q118.55 0.39 116.41 0.39L116.41 0.39Q114.18 0.39 112.41-0.26Q110.64-0.92 109.42-2.22Q108.20-3.52 107.55-5.46Q106.89-7.40 106.89-9.98ZM116.41-2.83L116.41-2.83Q117.70-2.83 118.64-3.39Q119.59-3.95 120.20-4.93Q120.80-5.92 121.09-7.28Q121.39-8.63 121.39-10.25L121.39-10.25Q121.39-13.75 120.20-15.59Q119.00-17.42 116.41-17.42L116.41-17.42Q115.10-17.42 114.13-16.87Q113.16-16.31 112.53-15.31Q111.89-14.32 111.58-12.95Q111.27-11.58 111.27-9.98L111.27-9.98Q111.27-6.45 112.53-4.64Q113.79-2.83 116.41-2.83Z"/></g>
</svg>
</g></svg></svg>