<svg version="1.1" preserveAspectRatio="none" xmlns="http://www.w3.org/2000/svg" width="100px" height="100px" viewBox="0 0 500 500"><rect width="100%" height="100%" fill="#FFFFFF" fill-opacity="1"/><svg viewBox="86.1523 200.3334 396.7781 411.0034" width="321.4744873156767" height="333" x="89.2628px" y="83.5px" xmlns="http://www.w3.org/2000/svg" xmlns:xlink="http://www.w3.org/1999/xlink" preserveAspectRatio="none"><defs></defs><style>.companyName {fill:#1C1C1C;fill-opacity:1;}.icon1 {fill:#1C1C1C;fill-opacity:1;}.icon2 {fill:#BAAE57;fill-opacity:1;}.icon3 {fill:#E192BB;fill-opacity:1;}.icon3-str {stroke:#E192BB;stroke-opacity:1;}.text {fill:#1C1C1C;fill-opacity:1;}</style><g opacity="1" transform="rotate(0 104.5608 585.7368)">
<svg width="359.9611" height="25.6" x="104.5608" y="585.7368" version="1.1" preserveAspectRatio="none" viewBox="2.72 -29.4 534.24 38">
  <g transform="matrix(1 0 0 1 0 0)" class="text"><path id="id-6izo4zJp25" d="M25.60-6.76Q24.36-3.40 21.52-1.50Q18.68 0.40 14.96 0.40L14.96 0.40Q11.24 0.40 8.48-1.26Q5.72-2.92 4.22-5.98Q2.72-9.04 2.72-13.20L2.72-13.20Q2.72-17.32 4.22-20.40Q5.72-23.48 8.48-25.14Q11.24-26.80 14.88-26.80L14.88-26.80Q18.68-26.80 21.26-25.24Q23.84-23.68 25.12-20.64L25.12-20.64L21.96-19.16Q21.08-21.48 19.40-22.64Q17.72-23.80 15.12-23.80L15.12-23.80Q12.40-23.80 10.36-22.54Q8.32-21.28 7.20-18.88Q6.08-16.48 6.08-13.20L6.08-13.20Q6.08-8.24 8.46-5.42Q10.84-2.60 14.96-2.60L14.96-2.60Q17.64-2.60 19.60-3.96Q21.56-5.32 22.40-7.96L22.40-7.96L25.60-6.76Z M49.52-11.04Q49.52-9.92 49.36-8.80L49.36-8.80L34.28-8.80Q34.56-5.76 36.30-4.08Q38.04-2.40 40.80-2.40L40.80-2.40Q43-2.40 44.46-3.16Q45.92-3.92 46.44-5.36L46.44-5.36L49.12-3.96Q47.92-1.84 45.92-0.72Q43.92 0.40 40.80 0.40L40.80 0.40Q36.28 0.40 33.70-2.36Q31.12-5.12 31.12-10L31.12-10Q31.12-14.88 33.58-17.64Q36.04-20.40 40.56-20.40L40.56-20.40Q43.36-20.40 45.40-19.16Q47.44-17.92 48.48-15.80Q49.52-13.68 49.52-11.04L49.52-11.04ZM40.56-17.60Q37.92-17.60 36.30-16.04Q34.68-14.48 34.32-11.64L34.32-11.64L46.44-11.64Q46.12-14.44 44.60-16.02Q43.08-17.60 40.56-17.60L40.56-17.60Z M66.24-20.40Q67.68-20.40 68.44-20L68.44-20L67.80-16.88Q66.84-17.40 65.28-17.40L65.28-17.40Q64-17.40 62.78-16.66Q61.56-15.92 60.78-14.42Q60.00-12.92 60.00-10.80L60.00-10.80L60.00 0L56.80 0L56.80-20L59.40-20L59.84-16.72Q61.52-20.40 66.24-20.40L66.24-20.40Z M84.24-4.08L85.36-1.40Q83.36 0.40 80.20 0.40L80.20 0.40Q77.76 0.40 76.22-0.92Q74.68-2.24 74.64-4.96L74.64-4.96L74.64-17.24L70.64-17.24L70.64-20L74.64-20L74.64-24.80L77.84-25.68L77.84-20L85.24-20L85.24-17.24L77.84-17.24L77.84-5.52Q77.84-4.08 78.66-3.34Q79.48-2.60 80.84-2.60L80.84-2.60Q82.76-2.60 84.24-4.08L84.24-4.08Z M92.68-23.84Q91.60-23.84 90.94-24.50Q90.28-25.16 90.28-26.24L90.28-26.24Q90.28-27.32 90.94-27.98Q91.60-28.64 92.68-28.64L92.68-28.64Q93.76-28.64 94.42-27.98Q95.08-27.32 95.08-26.24L95.08-26.24Q95.08-25.16 94.42-24.50Q93.76-23.84 92.68-23.84L92.68-23.84ZM94.28-20L94.28 0L91.08 0L91.08-20L94.28-20Z M107.68-23.04L107.68-20L114.36-20L114.36-17.24L107.68-17.24L107.68 0L104.48 0L104.48-17.24L100.48-17.24L100.48-20L104.48-20L104.48-23.36Q104.48-26.12 106.16-27.76Q107.84-29.40 111.04-29.40L111.04-29.40Q112.12-29.40 113.02-29.16Q113.92-28.92 114.44-28.48L114.44-28.48L113.60-25.88Q112.64-26.48 111.32-26.48L111.32-26.48Q107.68-26.48 107.68-23.04L107.68-23.04Z M136.84-20L127.44 3.36Q126.28 6.24 124.84 7.42Q123.40 8.60 121.12 8.60L121.12 8.60Q119.60 8.60 118.58 8.20Q117.56 7.80 116.72 6.92L116.72 6.92L117.84 4.20Q119.00 5.80 121.08 5.80L121.08 5.80Q122.24 5.80 123.14 5.10Q124.04 4.40 124.72 2.56L124.72 2.56L125.76-0.04L117.40-20L121.04-20L126.04-6.96L127.28-3.40L128.72-7.36L133.40-20L136.84-20Z M172.28-20L162.88 3.36Q161.72 6.24 160.28 7.42Q158.84 8.60 156.56 8.60L156.56 8.60Q155.04 8.60 154.02 8.20Q153 7.80 152.16 6.92L152.16 6.92L153.28 4.20Q154.44 5.80 156.52 5.80L156.52 5.80Q157.68 5.80 158.58 5.10Q159.48 4.40 160.16 2.56L160.16 2.56L161.20-0.04L152.84-20L156.48-20L161.48-6.96L162.72-3.40L164.16-7.36L168.84-20L172.28-20Z M186.32-20.40Q190.84-20.40 193.42-17.64Q196-14.88 196-10L196-10Q196-5.12 193.42-2.36Q190.84 0.40 186.32 0.40L186.32 0.40Q181.80 0.40 179.22-2.36Q176.64-5.12 176.64-10L176.64-10Q176.64-14.88 179.22-17.64Q181.80-20.40 186.32-20.40L186.32-20.40ZM186.32-17.64Q183.28-17.64 181.56-15.60Q179.84-13.56 179.84-10L179.84-10Q179.84-6.44 181.56-4.40Q183.28-2.36 186.32-2.36L186.32-2.36Q189.36-2.36 191.08-4.40Q192.80-6.44 192.80-10L192.80-10Q192.80-13.56 191.08-15.60Q189.36-17.64 186.32-17.64L186.32-17.64Z M217.52-20L220.72-20L220.72 0L217.92 0L217.72-3.04Q215.72 0.40 210.56 0.40L210.56 0.40Q207.32 0.40 205.26-1.40Q203.20-3.20 203.20-6.92L203.20-6.92L203.20-20L206.40-20L206.40-7.76Q206.40-4.84 207.60-3.62Q208.80-2.40 211.12-2.40L211.12-2.40Q213.88-2.40 215.70-4.08Q217.52-5.76 217.52-9.12L217.52-9.12L217.52-20Z M238.80-20.40Q240.24-20.40 241.00-20L241.00-20L240.36-16.88Q239.40-17.40 237.84-17.40L237.84-17.40Q236.56-17.40 235.34-16.66Q234.12-15.92 233.34-14.42Q232.56-12.92 232.56-10.80L232.56-10.80L232.56 0L229.36 0L229.36-20L231.96-20L232.40-16.72Q234.08-20.40 238.80-20.40L238.80-20.40Z M270.64-20.40Q274.84-20.40 277.30-17.62Q279.76-14.84 279.76-10L279.76-10Q279.76-5.16 277.30-2.38Q274.84 0.40 270.64 0.40L270.64 0.40Q268.32 0.40 266.50-0.66Q264.68-1.72 263.80-3.48L263.80-3.48L263.60 0L260.80 0L260.80-29.20L264.00-29.20L264.00-16.88Q264.96-18.48 266.70-19.44Q268.44-20.40 270.64-20.40L270.64-20.40ZM270.28-2.40Q273.20-2.40 274.88-4.46Q276.56-6.52 276.56-10L276.56-10Q276.56-13.48 274.88-15.54Q273.20-17.60 270.28-17.60L270.28-17.60Q267.40-17.60 265.70-15.60Q264.00-13.60 264.00-10.24L264.00-10.24L264.00-9.76Q264.00-6.40 265.70-4.40Q267.40-2.40 270.28-2.40L270.28-2.40Z M301.32-20L304.52-20L304.52 0L301.72 0L301.52-3.04Q299.52 0.40 294.36 0.40L294.36 0.40Q291.12 0.40 289.06-1.40Q287.00-3.20 287.00-6.92L287.00-6.92L287.00-20L290.20-20L290.20-7.76Q290.20-4.84 291.40-3.62Q292.60-2.40 294.92-2.40L294.92-2.40Q297.68-2.40 299.50-4.08Q301.32-5.76 301.32-9.12L301.32-9.12L301.32-20Z M319.96 0.40Q317.08 0.40 314.76-0.74Q312.44-1.88 311.36-4.12L311.36-4.12L313.96-5.92Q314.64-4.16 316.32-3.28Q318.00-2.40 320.28-2.40L320.28-2.40Q322.64-2.40 323.88-3.24Q325.12-4.08 325.12-5.36L325.12-5.36Q325.12-6.52 323.96-7.22Q322.80-7.92 319.88-8.44L319.88-8.44Q317.00-8.96 315.32-9.70Q313.64-10.44 312.88-11.58Q312.12-12.72 312.12-14.40L312.12-14.40Q312.12-16.04 313.08-17.40Q314.04-18.76 315.84-19.58Q317.64-20.40 320.00-20.40L320.00-20.40Q323.20-20.40 325.14-19.22Q327.08-18.04 327.92-15.60L327.92-15.60L325.20-14Q324.56-15.92 323.26-16.76Q321.96-17.60 320.00-17.60L320.00-17.60Q318.04-17.60 316.68-16.72Q315.32-15.84 315.32-14.68L315.32-14.68Q315.32-13.36 316.50-12.64Q317.68-11.92 320.72-11.40L320.72-11.40Q324.88-10.72 326.60-9.36Q328.32-8 328.32-5.52L328.32-5.52Q328.32-3.80 327.30-2.46Q326.28-1.12 324.38-0.36Q322.48 0.40 319.96 0.40L319.96 0.40Z M337.04-23.84Q335.96-23.84 335.30-24.50Q334.64-25.16 334.64-26.24L334.64-26.24Q334.64-27.32 335.30-27.98Q335.96-28.64 337.04-28.64L337.04-28.64Q338.12-28.64 338.78-27.98Q339.44-27.32 339.44-26.24L339.44-26.24Q339.44-25.16 338.78-24.50Q338.12-23.84 337.04-23.84L337.04-23.84ZM338.64-20L338.64 0L335.44 0L335.44-20L338.64-20Z M357.00-20.40Q360.40-20.40 362.60-18.44Q364.80-16.48 364.80-12.80L364.80-12.80L364.80 0L361.60 0L361.60-11.68Q361.60-14.80 360.26-16.20Q358.92-17.60 356.68-17.60L356.68-17.60Q355.08-17.60 353.68-16.90Q352.28-16.20 351.38-14.62Q350.48-13.04 350.48-10.64L350.48-10.64L350.48 0L347.28 0L347.28-20L350.08-20L350.28-16.88Q351.28-18.68 353.04-19.54Q354.80-20.40 357.00-20.40L357.00-20.40Z M390.40-11.04Q390.40-9.92 390.24-8.80L390.24-8.80L375.16-8.80Q375.44-5.76 377.18-4.08Q378.92-2.40 381.68-2.40L381.68-2.40Q383.88-2.40 385.34-3.16Q386.80-3.92 387.32-5.36L387.32-5.36L390.00-3.96Q388.80-1.84 386.80-0.72Q384.80 0.40 381.68 0.40L381.68 0.40Q377.16 0.40 374.58-2.36Q372.00-5.12 372.00-10L372.00-10Q372.00-14.88 374.46-17.64Q376.92-20.40 381.44-20.40L381.44-20.40Q384.24-20.40 386.28-19.16Q388.32-17.92 389.36-15.80Q390.40-13.68 390.40-11.04L390.40-11.04ZM381.44-17.60Q378.80-17.60 377.18-16.04Q375.56-14.48 375.20-11.64L375.20-11.64L387.32-11.64Q387.00-14.44 385.48-16.02Q383.96-17.60 381.44-17.60L381.44-17.60Z M404.48 0.40Q401.60 0.40 399.28-0.74Q396.96-1.88 395.88-4.12L395.88-4.12L398.48-5.92Q399.16-4.16 400.84-3.28Q402.52-2.40 404.80-2.40L404.80-2.40Q407.16-2.40 408.40-3.24Q409.64-4.08 409.64-5.36L409.64-5.36Q409.64-6.52 408.48-7.22Q407.32-7.92 404.40-8.44L404.40-8.44Q401.52-8.96 399.84-9.70Q398.16-10.44 397.40-11.58Q396.64-12.72 396.64-14.40L396.64-14.40Q396.64-16.04 397.60-17.40Q398.56-18.76 400.36-19.58Q402.16-20.40 404.52-20.40L404.52-20.40Q407.72-20.40 409.66-19.22Q411.60-18.04 412.44-15.60L412.44-15.60L409.72-14Q409.08-15.92 407.78-16.76Q406.48-17.60 404.52-17.60L404.52-17.60Q402.56-17.60 401.20-16.72Q399.84-15.84 399.84-14.68L399.84-14.68Q399.84-13.36 401.02-12.64Q402.20-11.92 405.24-11.40L405.24-11.40Q409.40-10.72 411.12-9.36Q412.84-8 412.84-5.52L412.84-5.52Q412.84-3.80 411.82-2.46Q410.80-1.12 408.90-0.36Q407.00 0.40 404.48 0.40L404.48 0.40Z M426.76 0.40Q423.88 0.40 421.56-0.74Q419.24-1.88 418.16-4.12L418.16-4.12L420.76-5.92Q421.44-4.16 423.12-3.28Q424.80-2.40 427.08-2.40L427.08-2.40Q429.44-2.40 430.68-3.24Q431.92-4.08 431.92-5.36L431.92-5.36Q431.92-6.52 430.76-7.22Q429.60-7.92 426.68-8.44L426.68-8.44Q423.80-8.96 422.12-9.70Q420.44-10.44 419.68-11.58Q418.92-12.72 418.92-14.40L418.92-14.40Q418.92-16.04 419.88-17.40Q420.84-18.76 422.64-19.58Q424.44-20.40 426.80-20.40L426.80-20.40Q430.00-20.40 431.94-19.22Q433.88-18.04 434.72-15.60L434.72-15.60L432.00-14Q431.36-15.92 430.06-16.76Q428.76-17.60 426.80-17.60L426.80-17.60Q424.84-17.60 423.48-16.72Q422.12-15.84 422.12-14.68L422.12-14.68Q422.12-13.36 423.30-12.64Q424.48-11.92 427.52-11.40L427.52-11.40Q431.68-10.72 433.40-9.36Q435.12-8 435.12-5.52L435.12-5.52Q435.12-3.80 434.10-2.46Q433.08-1.12 431.18-0.36Q429.28 0.40 426.76 0.40L426.76 0.40Z M466.80-20.40Q470.20-20.40 472.40-18.44Q474.60-16.48 474.60-12.80L474.60-12.80L474.60 0L471.40 0L471.40-11.68Q471.40-14.80 470.06-16.20Q468.72-17.60 466.48-17.60L466.48-17.60Q464.88-17.60 463.48-16.90Q462.08-16.20 461.18-14.62Q460.28-13.04 460.28-10.64L460.28-10.64L460.28 0L457.08 0L457.08-20L459.88-20L460.08-16.88Q461.08-18.68 462.84-19.54Q464.60-20.40 466.80-20.40L466.80-20.40Z M491.48-20.40Q496.00-20.40 498.58-17.64Q501.16-14.88 501.16-10L501.16-10Q501.16-5.12 498.58-2.36Q496.00 0.40 491.48 0.40L491.48 0.40Q486.96 0.40 484.38-2.36Q481.80-5.12 481.80-10L481.80-10Q481.80-14.88 484.38-17.64Q486.96-20.40 491.48-20.40L491.48-20.40ZM491.48-17.64Q488.44-17.64 486.72-15.60Q485.00-13.56 485.00-10L485.00-10Q485.00-6.44 486.72-4.40Q488.44-2.36 491.48-2.36L491.48-2.36Q494.52-2.36 496.24-4.40Q497.96-6.44 497.96-10L497.96-10Q497.96-13.56 496.24-15.60Q494.52-17.64 491.48-17.64L491.48-17.64Z M533.40-20L536.96-20L530.00 0L526.80 0L521.16-15.92L515.84 0L512.64 0L505.68-20L509.24-20L514.28-3.72L519.72-20L522.92-20L528.36-3.72L533.40-20Z"/></g>
</svg>
</g><g opacity="1" transform="rotate(0 86.1523 483.7368)">
<svg width="396.7781" height="80" x="86.1523" y="483.7368" version="1.1" preserveAspectRatio="none" viewBox="1.6 -27.24 138.08 27.839999999999996">
  <g transform="matrix(1 0 0 1 0 0)" class="companyName"><path id="id-D6z1nYkh7" d="M19.60-7.60L19.60-7.60L20.40-7.60L20.40 0L1.60 0L1.60-0.80L3.60-0.80L3.60-21.60L1.60-21.60L1.60-22.40L12-22.40L12-21.60L9.60-21.60L9.60-0.80L13.60-0.80Q14.96-0.80 15.86-1Q16.76-1.20 17.72-1.84L17.72-1.84Q19.60-3.08 19.60-7.60Z M30.40-18.40L30.40-0.80L32.40-0.80L32.40 0L22.40 0L22.40-0.80L24.40-0.80L24.40-17.60L22.80-17.60L22.80-18.40L30.40-18.40ZM30.76-23.70Q30.76-22.24 29.74-21.22Q28.72-20.20 27.26-20.20Q25.80-20.20 24.76-21.22Q23.72-22.24 23.72-23.70Q23.72-25.16 24.76-26.20Q25.80-27.24 27.26-27.24Q28.72-27.24 29.74-26.20Q30.76-25.16 30.76-23.70Z M54.60-22.40L54.60-13.48L53.80-13.48Q53.80-16.68 51.76-19.40Q49.72-22.12 45.92-22.12L45.92-22.12Q43.80-22.12 42.42-19.64Q41.04-17.16 41.04-11.16Q41.04-5.16 42.42-2.68Q43.80-0.20 46.74-0.20Q49.68-0.20 51.70-2.04Q53.72-3.88 54.20-7.24L54.20-7.24L55-7.24Q54.44-3.28 52.22-1.34Q50 0.60 46.92 0.60L46.92 0.60Q40.96 0.60 37.78-2.26Q34.60-5.12 34.60-11.22Q34.60-17.32 37.70-20.12Q40.80-22.92 45.92-22.92L45.92-22.92Q48.68-22.92 51.28-21.44L51.28-21.44Q52.12-20.92 52.66-20.92Q53.20-20.92 53.52-21.42Q53.84-21.92 53.84-22.40L53.84-22.40L54.60-22.40Z M75.28-8L75.28-8L63.20-8Q63.60-0.96 68.68-0.96L68.68-0.96Q70.04-0.96 71.78-1.60Q73.52-2.24 74.32-3.40L74.32-3.40L74.88-3Q74-1.52 71.88-0.56Q69.76 0.40 67.66 0.40Q65.56 0.40 63.88-0.02Q62.20-0.44 60.60-1.44Q59-2.44 58.10-4.44Q57.20-6.44 57.20-9.28L57.20-9.28Q57.20-14.12 59.88-16.46Q62.56-18.80 66.38-18.80Q70.20-18.80 72.74-16.24Q75.28-13.68 75.28-8ZM63.16-9.24L63.16-8.80L69.68-8.80Q69.68-12.48 68.90-15.24Q68.12-18 66.40-18Q64.68-18 63.92-15.34Q63.16-12.68 63.16-9.24L63.16-9.24Z M88.20-0.80L88.20 0L78.20 0L78.20-0.80L80.20-0.80L80.20-17.60L78.20-17.60L78.20-18.40L86.20-18.40L86.20-13.64Q86.56-15.60 87.50-16.84Q88.44-18.08 89.58-18.48Q90.72-18.88 91.78-18.88Q92.84-18.88 93.82-18.50Q94.80-18.12 95.28-16.98Q95.76-15.84 95.32-14.70Q94.88-13.56 93.78-13.08Q92.68-12.60 91.76-12.96Q90.84-13.32 90.44-13.94Q90.04-14.56 89.88-15.12L89.88-15.12Q89.48-16.60 88.80-16.60L88.80-16.60Q88.04-16.60 87.12-13.98Q86.20-11.36 86.20-8.44L86.20-8.44L86.20-0.80L88.20-0.80Z M116.92-22.40L116.92-13.48L116.12-13.48Q116.12-16.68 114.08-19.40Q112.04-22.12 108.24-22.12L108.24-22.12Q106.12-22.12 104.74-19.64Q103.36-17.16 103.36-11.16Q103.36-5.16 104.74-2.68Q106.12-0.20 109.06-0.20Q112.00-0.20 114.02-2.04Q116.04-3.88 116.52-7.24L116.52-7.24L117.32-7.24Q116.76-3.28 114.54-1.34Q112.32 0.60 109.24 0.60L109.24 0.60Q103.28 0.60 100.10-2.26Q96.92-5.12 96.92-11.22Q96.92-17.32 100.02-20.12Q103.12-22.92 108.24-22.92L108.24-22.92Q111.00-22.92 113.60-21.44L113.60-21.44Q114.44-20.92 114.98-20.92Q115.52-20.92 115.84-21.42Q116.16-21.92 116.16-22.40L116.16-22.40L116.92-22.40Z M126.52-2.42Q127.40-0.40 129.56-0.40Q131.72-0.40 132.64-2.44Q133.56-4.48 133.56-9.18Q133.56-13.88 132.64-15.94Q131.72-18 129.56-18Q127.40-18 126.52-15.94Q125.64-13.88 125.64-9.16Q125.64-4.44 126.52-2.42ZM129.48 0.40Q125.68 0.40 122.60-2.08Q119.52-4.56 119.52-9.12L119.52-9.12Q119.52-11.56 120.42-13.48Q121.32-15.40 122.82-16.52Q124.32-17.64 126.04-18.22Q127.76-18.80 129.56-18.80Q131.36-18.80 133.10-18.22Q134.84-17.64 136.34-16.52Q137.84-15.40 138.76-13.48Q139.68-11.56 139.68-9.16Q139.68-6.76 138.76-4.88Q137.84-3 136.32-1.88L136.32-1.88Q133.28 0.40 129.48 0.40Z"/></g>
</svg>
</g><g opacity="1" transform="rotate(0 205.1857 200.3334)">
<svg width="158.7113" height="243.4034" x="205.1857" y="200.3334" version="1.1" preserveAspectRatio="none" viewBox="293 183 413.4000244140625 634">
  <g transform="matrix(1 0 0 1 0 0)" class="icon1"><g><polygon points="508,408.1 705.9,570.2 705.6,345 508,183  "></polygon><polygon points="293,570.2 490.8,408.1 490.6,183 293,345  "></polygon><polygon points="509,429.8 509,655 706.4,817 706.4,591.9  "></polygon><polygon points="293,591.9 293,817 490.8,655 490.6,429.8  "></polygon></g></g>
</svg>
</g></svg></svg>