<svg version="1.1" preserveAspectRatio="none" xmlns="http://www.w3.org/2000/svg" width="500" height="500" viewBox="0 0 500 500"><rect width="100%" height="100%" fill="#212D94" fill-opacity="1"/><svg viewBox="47.502 251.9336 467.6183 230.9" width="333" height="164.42833824082592" x="83.5px" y="167.7858px" xmlns="http://www.w3.org/2000/svg" xmlns:xlink="http://www.w3.org/1999/xlink" preserveAspectRatio="none"><defs></defs><style>.a60p5ZquTEfillColor {fill:#F1F1F1;fill-opacity:0;}.ahs7pIl34ofillColor {fill:#0A0A0A;fill-opacity:0.1;}.background {fill:#212D94;fill-opacity:1;}.companyName {fill:#F1F1F1;fill-opacity:1;}.icon3-str {stroke:#0A0A0A;stroke-opacity:1;}.shapeStroke-str {stroke:#0A0A0A;stroke-opacity:1;}.text-str {stroke:#F1F1F1;stroke-opacity:1;}</style><g opacity="1" transform="rotate(0 47.502 251.9336)">
<svg width="233.8091" height="230.9" x="47.502" y="251.9336" version="1.1" preserveAspectRatio="none" viewBox="0 0 233.8091 230.9">
  <defs><rect x="14.43125" y="14.43125" width="204.9466" height="202.0375" rx="0px" ry="0px" id="id-60p5ZquTE1715013853437"></rect></defs><use class="a60p5ZquTEfillColor text-str" style="stroke-width:28.8625;" xlink:href="#id-60p5ZquTE1715013853437"></use>
</svg>
</g><g opacity="1" transform="rotate(0 281.3112 251.9336)">
<svg width="233.8091" height="230.9" x="281.3112" y="251.9336" version="1.1" preserveAspectRatio="none" viewBox="0 0 233.8091 230.9">
  <defs><rect x="14.43125" y="14.43125" width="204.9466" height="202.0375" rx="0px" ry="0px" id="id-hs7pIl34o1715013853437"></rect></defs><use class="ahs7pIl34ofillColor icon3-str" style="stroke-width:28.8625;" xlink:href="#id-hs7pIl34o1715013853437"></use>
</svg>
</g><g opacity="1" transform="rotate(0 57.502 261.9336)">
<svg width="447.6183" height="210.9" x="57.502" y="261.9336" version="1.1" preserveAspectRatio="none" viewBox="0 0 447.6183 210.9">
  <defs><rect x="0" y="0" width="447.6183" height="210.9" rx="0px" ry="0px" id="id-BO9lbzKc31715013853438"></rect></defs><use class="background shapeStroke-str" style="stroke-width:0;" xlink:href="#id-BO9lbzKc31715013853438"></use>
</svg>
</g><g opacity="1" transform="rotate(0 105.8722 403.9336)">
<svg width="350.8779" height="18.9" x="105.8722" y="403.9336" version="1.1" preserveAspectRatio="none" viewBox="1.56 -31.48 734.4 39.56">
  <g transform="matrix(1 0 0 1 0 0)" class="companyName"><path id="id-6izo4zJp25" d="M16.72 0.48Q12.44 0.48 8.98-1.38Q5.52-3.24 3.54-6.54Q1.56-9.84 1.56-14L1.56-14Q1.56-18.16 3.54-21.46Q5.52-24.76 8.98-26.62Q12.44-28.48 16.76-28.48L16.76-28.48Q20.40-28.48 23.34-27.20Q26.28-25.92 28.28-23.52L28.28-23.52L24.12-19.68Q21.28-22.96 17.08-22.96L17.08-22.96Q14.48-22.96 12.44-21.82Q10.40-20.68 9.26-18.64Q8.12-16.60 8.12-14L8.12-14Q8.12-11.40 9.26-9.36Q10.40-7.32 12.44-6.18Q14.48-5.04 17.08-5.04L17.08-5.04Q21.28-5.04 24.12-8.36L24.12-8.36L28.28-4.52Q26.28-2.08 23.32-0.80Q20.36 0.48 16.72 0.48L16.72 0.48Z M60.52-10.68Q60.52-10.56 60.40-9L60.40-9L44.12-9Q44.56-7 46.20-5.84Q47.84-4.68 50.28-4.68L50.28-4.68Q51.96-4.68 53.26-5.18Q54.56-5.68 55.68-6.76L55.68-6.76L59-3.16Q55.96 0.32 50.12 0.32L50.12 0.32Q46.48 0.32 43.68-1.10Q40.88-2.52 39.36-5.04Q37.84-7.56 37.84-10.76L37.84-10.76Q37.84-13.92 39.34-16.46Q40.84-19 43.46-20.42Q46.08-21.84 49.32-21.84L49.32-21.84Q52.48-21.84 55.04-20.48Q57.60-19.12 59.06-16.58Q60.52-14.04 60.52-10.68L60.52-10.68ZM49.36-17.12Q47.24-17.12 45.80-15.92Q44.36-14.72 44.04-12.64L44.04-12.64L54.64-12.64Q54.32-14.68 52.88-15.90Q51.44-17.12 49.36-17.12L49.36-17.12Z M78.64-18.68Q79.76-20.24 81.66-21.04Q83.56-21.84 86.04-21.84L86.04-21.84L86.04-16.08Q85.00-16.16 84.64-16.16L84.64-16.16Q81.96-16.16 80.44-14.66Q78.92-13.16 78.92-10.16L78.92-10.16L78.92 0L72.68 0L72.68-21.52L78.64-21.52L78.64-18.68Z M110.72-5.44L112.40-1.04Q111.48-0.36 110.14-0.02Q108.80 0.32 107.32 0.32L107.32 0.32Q103.48 0.32 101.38-1.64Q99.28-3.60 99.28-7.40L99.28-7.40L99.28-16.24L95.96-16.24L95.96-21.04L99.28-21.04L99.28-26.28L105.52-26.28L105.52-21.04L110.88-21.04L110.88-16.24L105.52-16.24L105.52-7.48Q105.52-6.12 106.22-5.38Q106.92-4.64 108.20-4.64L108.20-4.64Q109.68-4.64 110.72-5.44L110.72-5.44Z M123.92 0L123.92-21.52L130.16-21.52L130.16 0L123.92 0ZM127.04-24.52Q125.32-24.52 124.24-25.52Q123.16-26.52 123.16-28L123.16-28Q123.16-29.48 124.24-30.48Q125.32-31.48 127.04-31.48L127.04-31.48Q128.76-31.48 129.84-30.52Q130.92-29.56 130.92-28.12L130.92-28.12Q130.92-26.56 129.84-25.54Q128.76-24.52 127.04-24.52L127.04-24.52Z M150.80-21.96L150.80-21.04L156.32-21.04L156.32-16.24L150.96-16.24L150.96 0L144.72 0L144.72-16.24L141.40-16.24L141.40-21.04L144.72-21.04L144.72-22Q144.72-25.68 146.90-27.84Q149.08-30 153.04-30L153.04-30Q154.44-30 155.70-29.70Q156.96-29.40 157.80-28.84L157.80-28.84L156.16-24.32Q155.08-25.08 153.64-25.08L153.64-25.08Q150.80-25.08 150.80-21.96L150.80-21.96Z M183.20-21.52L189.20-21.52L179.48 1.32Q178 5.04 175.82 6.56Q173.64 8.08 170.56 8.08L170.56 8.08Q168.88 8.08 167.24 7.56Q165.60 7.04 164.56 6.12L164.56 6.12L166.84 1.68Q167.56 2.32 168.50 2.68Q169.44 3.04 170.36 3.04L170.36 3.04Q171.64 3.04 172.44 2.42Q173.24 1.80 173.88 0.36L173.88 0.36L173.96 0.16L164.64-21.52L171.08-21.52L177.12-6.92L183.20-21.52Z M234.44-21.52L240.44-21.52L230.72 1.32Q229.24 5.04 227.06 6.56Q224.88 8.08 221.80 8.08L221.80 8.08Q220.12 8.08 218.48 7.56Q216.84 7.04 215.80 6.12L215.80 6.12L218.08 1.68Q218.80 2.32 219.74 2.68Q220.68 3.04 221.60 3.04L221.60 3.04Q222.88 3.04 223.68 2.42Q224.48 1.80 225.12 0.36L225.12 0.36L225.20 0.16L215.88-21.52L222.32-21.52L228.36-6.92L234.44-21.52Z M260.64 0.32Q257.24 0.32 254.54-1.10Q251.84-2.52 250.32-5.04Q248.80-7.56 248.80-10.76L248.80-10.76Q248.80-13.96 250.32-16.48Q251.84-19 254.54-20.42Q257.24-21.84 260.64-21.84L260.64-21.84Q264.04-21.84 266.72-20.42Q269.40-19 270.92-16.48Q272.44-13.96 272.44-10.76L272.44-10.76Q272.44-7.56 270.92-5.04Q269.40-2.52 266.72-1.10Q264.04 0.32 260.64 0.32L260.64 0.32ZM260.64-4.80Q263.04-4.80 264.58-6.42Q266.12-8.04 266.12-10.76L266.12-10.76Q266.12-13.48 264.58-15.10Q263.04-16.72 260.64-16.72L260.64-16.72Q258.24-16.72 256.68-15.10Q255.12-13.48 255.12-10.76L255.12-10.76Q255.12-8.04 256.68-6.42Q258.24-4.80 260.64-4.80L260.64-4.80Z M300.04-21.52L306.28-21.52L306.28 0L300.36 0L300.36-2.56Q299.12-1.16 297.40-0.42Q295.68 0.32 293.68 0.32L293.68 0.32Q289.44 0.32 286.96-2.12Q284.48-4.56 284.48-9.36L284.48-9.36L284.48-21.52L290.72-21.52L290.72-10.28Q290.72-5.08 295.08-5.08L295.08-5.08Q297.32-5.08 298.68-6.54Q300.04-8 300.04-10.88L300.04-10.88L300.04-21.52Z M326.04-18.68Q327.16-20.24 329.06-21.04Q330.96-21.84 333.44-21.84L333.44-21.84L333.44-16.08Q332.40-16.16 332.04-16.16L332.04-16.16Q329.36-16.16 327.84-14.66Q326.32-13.16 326.32-10.16L326.32-10.16L326.32 0L320.08 0L320.08-21.52L326.04-21.52L326.04-18.68Z M377.36-21.84Q380.36-21.84 382.82-20.46Q385.28-19.08 386.68-16.58Q388.08-14.08 388.08-10.76L388.08-10.76Q388.08-7.44 386.68-4.94Q385.28-2.44 382.82-1.06Q380.36 0.32 377.36 0.32L377.36 0.32Q372.92 0.32 370.60-2.48L370.60-2.48L370.60 0L364.64 0L364.64-29.68L370.88-29.68L370.88-19.24Q373.24-21.84 377.36-21.84L377.36-21.84ZM376.28-4.80Q378.68-4.80 380.22-6.42Q381.76-8.04 381.76-10.76L381.76-10.76Q381.76-13.48 380.22-15.10Q378.68-16.72 376.28-16.72L376.28-16.72Q373.88-16.72 372.34-15.10Q370.80-13.48 370.80-10.76L370.80-10.76Q370.80-8.04 372.34-6.42Q373.88-4.80 376.28-4.80L376.28-4.80Z M415.68-21.52L421.92-21.52L421.92 0L416.00 0L416.00-2.56Q414.76-1.16 413.04-0.42Q411.32 0.32 409.32 0.32L409.32 0.32Q405.08 0.32 402.60-2.12Q400.12-4.56 400.12-9.36L400.12-9.36L400.12-21.52L406.36-21.52L406.36-10.28Q406.36-5.08 410.72-5.08L410.72-5.08Q412.96-5.08 414.32-6.54Q415.68-8 415.68-10.88L415.68-10.88L415.68-21.52Z M442.96 0.32Q440.28 0.32 437.72-0.34Q435.16-1 433.64-2L433.64-2L435.72-6.48Q437.16-5.56 439.20-4.98Q441.24-4.40 443.20-4.40L443.20-4.40Q447.16-4.40 447.16-6.36L447.16-6.36Q447.16-7.28 446.08-7.68Q445.00-8.08 442.76-8.36L442.76-8.36Q440.12-8.76 438.40-9.28Q436.68-9.80 435.42-11.12Q434.16-12.44 434.16-14.88L434.16-14.88Q434.16-16.92 435.34-18.50Q436.52-20.08 438.78-20.96Q441.04-21.84 444.12-21.84L444.12-21.84Q446.40-21.84 448.66-21.34Q450.92-20.84 452.40-19.96L452.40-19.96L450.32-15.52Q447.48-17.12 444.12-17.12L444.12-17.12Q442.12-17.12 441.12-16.56Q440.12-16 440.12-15.12L440.12-15.12Q440.12-14.12 441.20-13.72Q442.28-13.32 444.64-12.96L444.64-12.96Q447.28-12.52 448.96-12.02Q450.64-11.52 451.88-10.20Q453.12-8.88 453.12-6.52L453.12-6.52Q453.12-4.52 451.92-2.96Q450.72-1.40 448.42-0.54Q446.12 0.32 442.96 0.32L442.96 0.32Z M464.96 0L464.96-21.52L471.20-21.52L471.20 0L464.96 0ZM468.08-24.52Q466.36-24.52 465.28-25.52Q464.20-26.52 464.20-28L464.20-28Q464.20-29.48 465.28-30.48Q466.36-31.48 468.08-31.48L468.08-31.48Q469.80-31.48 470.88-30.52Q471.96-29.56 471.96-28.12L471.96-28.12Q471.96-26.56 470.88-25.54Q469.80-24.52 468.08-24.52L468.08-24.52Z M498.08-21.84Q502.08-21.84 504.54-19.44Q507.00-17.04 507.00-12.32L507.00-12.32L507.00 0L500.76 0L500.76-11.36Q500.76-13.92 499.64-15.18Q498.52-16.44 496.40-16.44L496.40-16.44Q494.04-16.44 492.64-14.98Q491.24-13.52 491.24-10.64L491.24-10.64L491.24 0L485.00 0L485.00-21.52L490.96-21.52L490.96-19Q492.20-20.36 494.04-21.10Q495.88-21.84 498.08-21.84L498.08-21.84Z M541.96-10.68Q541.96-10.56 541.84-9L541.84-9L525.56-9Q526.00-7 527.64-5.84Q529.28-4.68 531.72-4.68L531.72-4.68Q533.40-4.68 534.70-5.18Q536.00-5.68 537.12-6.76L537.12-6.76L540.44-3.16Q537.40 0.32 531.56 0.32L531.56 0.32Q527.92 0.32 525.12-1.10Q522.32-2.52 520.80-5.04Q519.28-7.56 519.28-10.76L519.28-10.76Q519.28-13.92 520.78-16.46Q522.28-19 524.90-20.42Q527.52-21.84 530.76-21.84L530.76-21.84Q533.92-21.84 536.48-20.48Q539.04-19.12 540.50-16.58Q541.96-14.04 541.96-10.68L541.96-10.68ZM530.80-17.12Q528.68-17.12 527.24-15.92Q525.80-14.72 525.48-12.64L525.48-12.64L536.08-12.64Q535.76-14.68 534.32-15.90Q532.88-17.12 530.80-17.12L530.80-17.12Z M561.36 0.32Q558.68 0.32 556.12-0.34Q553.56-1 552.04-2L552.04-2L554.12-6.48Q555.56-5.56 557.60-4.98Q559.64-4.40 561.60-4.40L561.60-4.40Q565.56-4.40 565.56-6.36L565.56-6.36Q565.56-7.28 564.48-7.68Q563.40-8.08 561.16-8.36L561.16-8.36Q558.52-8.76 556.80-9.28Q555.08-9.80 553.82-11.12Q552.56-12.44 552.56-14.88L552.56-14.88Q552.56-16.92 553.74-18.50Q554.92-20.08 557.18-20.96Q559.44-21.84 562.52-21.84L562.52-21.84Q564.80-21.84 567.06-21.34Q569.32-20.84 570.80-19.96L570.80-19.96L568.72-15.52Q565.88-17.12 562.52-17.12L562.52-17.12Q560.52-17.12 559.52-16.56Q558.52-16 558.52-15.12L558.52-15.12Q558.52-14.12 559.60-13.72Q560.68-13.32 563.04-12.96L563.04-12.96Q565.68-12.52 567.36-12.02Q569.04-11.52 570.28-10.20Q571.52-8.88 571.52-6.52L571.52-6.52Q571.52-4.52 570.32-2.96Q569.12-1.40 566.82-0.54Q564.52 0.32 561.36 0.32L561.36 0.32Z M590.60 0.32Q587.92 0.32 585.36-0.34Q582.80-1 581.28-2L581.28-2L583.36-6.48Q584.80-5.56 586.84-4.98Q588.88-4.40 590.84-4.40L590.84-4.40Q594.80-4.40 594.80-6.36L594.80-6.36Q594.80-7.28 593.72-7.68Q592.64-8.08 590.40-8.36L590.40-8.36Q587.76-8.76 586.04-9.28Q584.32-9.80 583.06-11.12Q581.80-12.44 581.80-14.88L581.80-14.88Q581.80-16.92 582.98-18.50Q584.16-20.08 586.42-20.96Q588.68-21.84 591.76-21.84L591.76-21.84Q594.04-21.84 596.30-21.34Q598.56-20.84 600.04-19.96L600.04-19.96L597.96-15.52Q595.12-17.12 591.76-17.12L591.76-17.12Q589.76-17.12 588.76-16.56Q587.76-16 587.76-15.12L587.76-15.12Q587.76-14.12 588.84-13.72Q589.92-13.32 592.28-12.96L592.28-12.96Q594.92-12.52 596.60-12.02Q598.28-11.52 599.52-10.20Q600.76-8.88 600.76-6.52L600.76-6.52Q600.76-4.52 599.56-2.96Q598.36-1.40 596.06-0.54Q593.76 0.32 590.60 0.32L590.60 0.32Z M645.00-21.84Q649.00-21.84 651.46-19.44Q653.92-17.04 653.92-12.32L653.92-12.32L653.92 0L647.68 0L647.68-11.36Q647.68-13.92 646.56-15.18Q645.44-16.44 643.32-16.44L643.32-16.44Q640.96-16.44 639.56-14.98Q638.16-13.52 638.16-10.64L638.16-10.64L638.16 0L631.92 0L631.92-21.52L637.88-21.52L637.88-19Q639.12-20.36 640.96-21.10Q642.80-21.84 645.00-21.84L645.00-21.84Z M678.04 0.32Q674.64 0.32 671.94-1.10Q669.24-2.52 667.72-5.04Q666.20-7.56 666.20-10.76L666.20-10.76Q666.20-13.96 667.72-16.48Q669.24-19 671.94-20.42Q674.64-21.84 678.04-21.84L678.04-21.84Q681.44-21.84 684.12-20.42Q686.80-19 688.32-16.48Q689.84-13.96 689.84-10.76L689.84-10.76Q689.84-7.56 688.32-5.04Q686.80-2.52 684.12-1.10Q681.44 0.32 678.04 0.32L678.04 0.32ZM678.04-4.80Q680.44-4.80 681.98-6.42Q683.52-8.04 683.52-10.76L683.52-10.76Q683.52-13.48 681.98-15.10Q680.44-16.72 678.04-16.72L678.04-16.72Q675.64-16.72 674.08-15.10Q672.52-13.48 672.52-10.76L672.52-10.76Q672.52-8.04 674.08-6.42Q675.64-4.80 678.04-4.80L678.04-4.80Z M730.44-21.52L735.96-21.52L728.16 0L722.16 0L717.32-13.36L712.32 0L706.32 0L698.56-21.52L704.44-21.52L709.52-6.96L714.80-21.52L720.08-21.52L725.20-6.96L730.44-21.52Z"/></g>
</svg>
</g><g opacity="1" transform="rotate(0 97.502 311.9336)">
<svg width="367.6183" height="70" x="97.502" y="311.9336" version="1.1" preserveAspectRatio="none" viewBox="4 -29.44 156.92 29.880000000000003">
  <g transform="matrix(1 0 0 1 0 0)" class="companyName"><path id="id-D6z1nYkh7" d="M4-29.12L8.68-29.12L8.68-4.48L23.04-4.48L23.04 0L4 0L4-29.12Z M30.28-16.92L34.76-16.92L34.76 0L30.28 0L30.28-16.92ZM30.08-22.96Q30.08-23.96 30.88-24.66Q31.68-25.36 32.68-25.36L32.68-25.36Q33.64-25.36 34.42-24.66Q35.20-23.96 35.20-22.96L35.20-22.96Q35.20-21.96 34.42-21.28Q33.64-20.60 32.68-20.60L32.68-20.60Q31.68-20.60 30.88-21.28Q30.08-21.96 30.08-22.96L30.08-22.96Z M65.44-2.28Q64.16-1.36 61.90-0.52Q59.64 0.32 56.96 0.32L56.96 0.32Q52.44 0.32 49.06-1.66Q45.68-3.64 43.86-6.98Q42.04-10.32 42.04-14.32L42.04-14.32Q42.04-18.68 43.86-22.12Q45.68-25.56 48.94-27.50Q52.20-29.44 56.36-29.44L56.36-29.44Q58.92-29.44 61.10-28.76Q63.28-28.08 64.96-27.04L64.96-27.04L63.12-22.68Q59.88-24.96 56.52-24.96L56.52-24.96Q53.96-24.96 51.74-23.58Q49.52-22.20 48.20-19.82Q46.88-17.44 46.88-14.60L46.88-14.60Q46.88-11.60 48.10-9.22Q49.32-6.84 51.58-5.50Q53.84-4.16 56.80-4.16L56.80-4.16Q58.92-4.16 60.62-4.80Q62.32-5.44 63.48-6.44L63.48-6.44L65.44-2.28Z M80.88-3.40Q82.76-3.40 84.68-4.72L84.68-4.72L86.72-1.40Q85.36-0.56 83.80-0.06Q82.24 0.44 80.80 0.44L80.80 0.44Q77.88 0.44 75.74-0.72Q73.60-1.88 72.46-3.92Q71.32-5.96 71.32-8.60L71.32-8.60Q71.32-11.08 72.60-13.16Q73.88-15.24 76.08-16.46Q78.28-17.68 80.88-17.68L80.88-17.68Q84.32-17.68 86.60-15.66Q88.88-13.64 89.64-9.96L89.64-9.96L76.60-5.56Q77.28-4.52 78.40-3.96Q79.52-3.40 80.88-3.40L80.88-3.40ZM80.52-14.16Q78.40-14.16 77.06-12.68Q75.72-11.20 75.72-8.84L75.72-8.84Q75.72-8.40 75.76-8.16L75.76-8.16L84.64-11.32Q84.12-12.56 83.12-13.36Q82.12-14.16 80.52-14.16L80.52-14.16Z M100.40-13Q101.08-14.36 102.32-15.44Q103.56-16.52 104.86-17.10Q106.16-17.68 107.04-17.68L107.04-17.68L106.84-13.20Q105.00-13.36 103.56-12.54Q102.12-11.72 101.32-10.30Q100.52-8.88 100.52-7.28L100.52-7.28L100.52 0L96.04 0L96.04-16.92L100.08-16.92L100.40-13Z M136.16-2.28Q134.88-1.36 132.62-0.52Q130.36 0.32 127.68 0.32L127.68 0.32Q123.16 0.32 119.78-1.66Q116.40-3.64 114.58-6.98Q112.76-10.32 112.76-14.32L112.76-14.32Q112.76-18.68 114.58-22.12Q116.40-25.56 119.66-27.50Q122.92-29.44 127.08-29.44L127.08-29.44Q129.64-29.44 131.82-28.76Q134-28.08 135.68-27.04L135.68-27.04L133.84-22.68Q130.60-24.96 127.24-24.96L127.24-24.96Q124.68-24.96 122.46-23.58Q120.24-22.20 118.92-19.82Q117.60-17.44 117.60-14.60L117.60-14.60Q117.60-11.60 118.82-9.22Q120.04-6.84 122.30-5.50Q124.56-4.16 127.52-4.16L127.52-4.16Q129.64-4.16 131.34-4.80Q133.04-5.44 134.20-6.44L134.20-6.44L136.16-2.28Z M142.04-8.64Q142.04-11.16 143.26-13.24Q144.48-15.32 146.64-16.50Q148.80-17.68 151.56-17.68L151.56-17.68Q154.32-17.68 156.46-16.50Q158.60-15.32 159.76-13.26Q160.92-11.20 160.92-8.64L160.92-8.64Q160.92-6.08 159.76-4.02Q158.60-1.96 156.46-0.76Q154.32 0.44 151.52 0.44L151.52 0.44Q148.80 0.44 146.64-0.66Q144.48-1.76 143.26-3.82Q142.04-5.88 142.04-8.64L142.04-8.64ZM146.56-8.60Q146.56-6.32 147.96-4.78Q149.36-3.24 151.44-3.24L151.44-3.24Q153.60-3.24 154.98-4.76Q156.36-6.28 156.36-8.60L156.36-8.60Q156.36-10.92 154.98-12.46Q153.60-14 151.44-14L151.44-14Q149.36-14 147.96-12.42Q146.56-10.84 146.56-8.60L146.56-8.60Z"/></g>
</svg>
</g></svg></svg>